<?xml version="1.0" encoding="UTF-8" standalone="no"?>
<!-- Created with Inkscape (http://www.inkscape.org/) -->

<svg
   version="1.1"
   id="svg1"
   width="2640"
   height="1066.6667"
   viewBox="0 0 2640 1066.6667"
   sodipodi:docname="404_large.svg"
   xml:space="preserve"
   inkscape:version="1.4 (e7c3feb100, 2024-10-09)"
   inkscape:export-filename="../404.jpg"
   inkscape:export-xdpi="149.89999"
   inkscape:export-ydpi="149.89999"
   xmlns:inkscape="http://www.inkscape.org/namespaces/inkscape"
   xmlns:sodipodi="http://sodipodi.sourceforge.net/DTD/sodipodi-0.dtd"
   xmlns="http://www.w3.org/2000/svg"
   xmlns:svg="http://www.w3.org/2000/svg"><defs
     id="defs1"><inkscape:path-effect
       effect="bend_path"
       id="path-effect21"
       is_visible="true"
       lpeversion="1"
       bendpath="m 1751.3611,-353.9632 c 412.6852,-42.54308 722.9577,-13.39731 1055.728,0"
       prop_scale="1"
       scale_y_rel="false"
       vertical="false"
       hide_knot="false"
       bendpath-nodetypes="cc" /><inkscape:path-effect
       effect="bend_path"
       id="path-effect20"
       is_visible="true"
       lpeversion="1"
       bendpath="m 1849.7037,-289.23183 c 514.2951,-75.8547 668.9508,3.81031 884.4314,57.17266"
       prop_scale="1"
       scale_y_rel="false"
       vertical="false"
       hide_knot="false"
       bendpath-nodetypes="cc" /><inkscape:path-effect
       effect="bend_path"
       id="path-effect19"
       is_visible="true"
       lpeversion="1"
       bendpath="m 1922.9286,-489.98528 c 44.2361,-22.01964 184.2745,-8.13349 478.547,5.65022 59.9463,2.80788 245.8489,-6.40073 310.0254,-3.16323"
       prop_scale="1"
       scale_y_rel="false"
       vertical="false"
       hide_knot="false"
       bendpath-nodetypes="csc" /></defs><sodipodi:namedview
     id="namedview1"
     pagecolor="#ffffff"
     bordercolor="#000000"
     borderopacity="0.25"
     inkscape:showpageshadow="2"
     inkscape:pageopacity="0.0"
     inkscape:pagecheckerboard="0"
     inkscape:deskcolor="#d1d1d1"
     showguides="true"
     inkscape:zoom="0.85799284"
     inkscape:cx="1273.9034"
     inkscape:cy="578.0934"
     inkscape:window-width="1920"
     inkscape:window-height="1019"
     inkscape:window-x="0"
     inkscape:window-y="0"
     inkscape:window-maximized="1"
     inkscape:current-layer="g3"><sodipodi:guide
       position="-306.25069,420.75999"
       orientation="1,0"
       id="guide1"
       inkscape:locked="false" /></sodipodi:namedview><g
     inkscape:groupmode="layer"
     inkscape:label="Image"
     id="g1"><g
       id="g2"
       transform="rotate(-37.76092,1140.7983,1389.9491)"><path
         style="fill:#0052a0;fill-opacity:1;stroke:#0052a0;stroke-width:4.14713;stroke-linecap:round;stroke-dasharray:none;stroke-opacity:1"
         d="m 2151.873,740.01057 68.146,-6.7706 71.7421,15.67513 -35.2875,-79.29449 -102.2629,-47.39138 -118.4463,22.19699 -81.9321,107.56839 -13.7065,235.57756 157.0694,-180.53089 z"
         id="path16"
         sodipodi:nodetypes="cccccccccc" /><g
         id="g3"
         transform="rotate(-6.170381,1630.0241,18.198559)"
         style="fill:#0052a0;fill-opacity:1"><path
           style="fill:#0052a0;fill-opacity:1;stroke:#0052a0;stroke-width:4.89951;stroke-dasharray:none;stroke-opacity:1"
           d="m 1341.6114,837.12092 c 3.9792,-24.02761 -40.9267,-36.98007 -56.2511,-23.55477 z"
           id="path1060"
           sodipodi:nodetypes="ccc" /><path
           style="fill:#0052a0;fill-opacity:1;stroke:#0052a0;stroke-width:4.89951;stroke-dasharray:none;stroke-opacity:1"
           d="m 1439.3735,236.22564 -40.1922,26.62689 -9.0624,-10.18931 -24.115,15.97595 -4.8632,17.10176 -11.2135,-6.45124 -33.581,144.85103 c -48.9274,-26.45839 -78.7439,37.82476 -78.6757,79.11035 0.022,14.26322 13.4447,29.09995 11.7356,41.5756 -2.1009,15.33498 -7.047,20.88414 -42.1876,38.2629 l -10.7946,62.26921 -4.3835,75.8443 c 31.5581,54.61515 13.6846,43.36908 48.9255,97.86253 58.5196,90.4885 206.8445,39.41692 277.4529,9.48552 l 25.8943,-74.27325 15.5141,-1.02402 -11.2136,-6.45094 13.9264,-6.91298 2.1509,-3.73882 c -0.561,-7.619 -1.4723,-24.38344 6.2366,-29.57741 30.5838,-20.61007 133.0092,-76.78356 60.5228,-121.06043 l 75.6214,-70.91837 c -7.6913,-19.39026 5.2133,-22.60543 5.912,-40.54379 1.1954,-30.70431 3.1602,-66.27643 -3.0172,-97.08616 -16.1887,-80.73943 -98.1577,-139.80642 -177.8647,-146.26574 -25.699,-2.08226 -71.2155,17.90018 -92.7259,5.52593 m 215.8292,273.40486 -7.4745,-4.30129 c -6.1871,49.83273 -71.9827,73.93519 -86.8151,119.20131 -18.2994,55.84645 -24.0662,178.64868 -84.9562,214.41518 -26.707,15.68802 -30.5608,26.03598 -59.5625,35.46708 -46.2537,15.0415 -127.6622,-3.64908 -165.4431,-55.40938 -18.514,-25.36164 -22.5958,-36.94815 -33.0395,-66.67671 -9.7245,-27.6808 -17.7762,-65.51373 -13.9074,-95.75305 6.8564,-53.58826 86.786,-108.75684 115.6582,-145.95498 45.5957,-58.74301 4.5824,-159.20912 93.2459,-185.14935 11.4867,-3.36086 26.2218,-9.0749 38.3498,-6.12903 16.6615,4.04478 14.3487,25.13715 17.7181,38.38303 5.7954,22.78692 23.4334,59.37407 43.738,72.42278 22.8219,14.6671 64.1947,0.83773 87.6482,-6.78879 9.5328,-3.09997 24.5442,-14.07099 34.6119,-8.27898 12.8248,7.37791 17.0612,45.4619 19.0842,59.06835 1.803,12.12605 2.8961,23.58361 1.144,35.48281 m -139.6044,-44.07262 c 62.3202,17.11494 100.2217,19.16143 98.0848,52.93681 33.7852,-16.33398 -42.23,-86.08343 -85.6485,-63.05889 m -133.4563,-63.37809 3.7382,2.14847 c 29.8836,-15.76475 42.4055,60.44309 84.7628,71.66247 5.17,-23.39074 -13.6283,-36.00993 -27.4962,-48.28924 -16.5031,-14.61273 -49.0381,-45.11315 -61.0042,-25.5237 m 74.457,129.8691 c -5.7153,-25.28636 -9.8622,-47.75429 -32.9771,-63.74415 -46.5918,-32.23124 -107.0649,10.26542 -109.2013,61.54942 -2.4539,58.90185 75.1415,86.8354 112.6373,44.89848 l 7.4762,4.29985 c -20.0454,81.81581 97.0536,89.54922 126.1618,22.83001 27.1745,-62.28706 -57.8479,-121.56117 -104.0964,-69.83403 m 63.8481,-7.21402 c 65.8233,24.54312 30.5213,131.11401 -36.7059,115.69179 -77.3649,-17.74733 -37.7046,-143.43609 36.7059,-115.69179 m -112.6975,-54.88282 c 67.073,25.00966 29.1343,130.79543 -36.7057,115.69217 -84.3055,-19.33939 -40.0634,-144.31589 36.7057,-115.69217 m 148.9057,234.07824 7.1146,-55.60536 c 17.8766,2.6205 18.2137,10.67581 10.0876,25.70287 l 7.4764,4.30004 c 9.498,-17.56426 10.5447,-28.12029 -7.375,-39.06652 17.5038,-13.94993 29.975,-20.26344 46.542,-3.07476 -1.002,-19.13404 -11.0215,-18.08432 -27.7524,-20.93975 15.2378,-14.68653 38.0629,-12.12461 39.8101,12.95187 2.4929,35.78192 -43.8867,75.27009 -75.9026,75.73138 M 1312.5086,456.75332 c -12.0236,-17.3362 -22.5876,-25.00958 -40.0915,-8.1383 23.7764,-1.74671 33.0021,1.52137 33.0774,28.97873 -21.9647,-5.38193 -32.6409,5.58176 -30.5661,27.18985 l 15.0517,-26.16465 c 25.9806,17.80535 -3.0037,64.32113 -27.4411,56.3489 -37.3155,-12.17428 -6.7532,-88.66515 14.7407,-103.45361 23.2133,-15.97198 38.6006,2.31746 35.2281,25.2401 m 174.2009,87.77658 c -27.4963,1.13673 -21.7179,45.85803 5.1474,38.61464 21.6569,-5.83903 17.9097,-39.56655 -5.1474,-38.61464 m -60.6328,-25.75944 c -19.7244,-2.64155 -27.0963,31.8006 -6.7055,37.59915 23.456,6.67049 36.351,-33.63054 6.7055,-37.59915"
           id="path1060-0"
           sodipodi:nodetypes="ccccccccsccccccccccccccccccccccccccccccssscccccccacccsccsccccccccccccccsccccccccccscccc" /><path
           style="fill:#0052a0;fill-opacity:1;stroke:#0052a0;stroke-width:4.89951;stroke-dasharray:none;stroke-opacity:1"
           d="m 1231.9302,711.67869 c 56.2242,24.50344 103.0899,46.68492 152.7054,83.84683 16.9567,12.70019 39.1549,46.98093 62.5563,45.95667 32.7672,-1.43495 34.1029,-46.03426 29.7105,-68.43947 -10.0592,-51.3129 -39.9254,-98.08531 -88.9073,-118.67214 -40.0422,-16.82975 -100.0899,-28.41088 -141.1595,-10.54653 -28.6686,12.47013 -55.1558,50.31318 -14.9054,67.85464 m 18.0726,-60.09472 3.4521,2.58335 -17.2156,51.75708 c -27.7563,-20.78929 -12.8233,-41.02731 13.7639,-54.34213 m -4.2759,56.06091 c 2.8372,-35.58469 15.4052,-67.76407 56.0197,-60.40643 l -30.141,69.01447 -25.8792,-8.60661 m 35.3664,10.3275 32.7264,-72.46592 67.2814,18.06909 -51.2645,79.23357 -48.7437,-24.83581 m 150.9961,107.7083 35.3389,-32.79529 c 8.3913,22.731 -12.2837,46.552 -35.3389,32.79529 m -38.8321,-34.47273 51.7025,-69.02808 c 20.8744,23.77726 29.3633,98.05883 -22.5076,93.58901 -9.4407,-0.81307 -21.2983,-18.64671 -29.1949,-24.56093 m -55.2223,-41.36194 52.5547,-84.55261 c 15.6622,7.77309 44.2899,22.42033 47.174,42.51691 2.0212,14.08552 -39.7288,73.75726 -54.1433,73.48587 -13.6328,-0.25601 -34.8728,-23.42638 -45.5854,-31.45017"
           id="path1060-2"
           sodipodi:nodetypes="ccccsscccccccccccccccccccccccscc" /></g><path
         style="fill:#ffffff;stroke:#0052a0;stroke-width:22.3844;stroke-linecap:round;stroke-opacity:1"
         id="rect2"
         width="1055.728"
         height="651.60657"
         x="1751.3611"
         y="-679.76648"
         transform="rotate(37.76092)"
         inkscape:path-effect="#path-effect21"
         sodipodi:type="rect"
         d="m 1717.8442,-678.0379 c 104.7771,-10.80105 209.8752,-17.92003 315.0547,-21.38385 l 10e-5,0 c 95.3431,-3.11235 189.8023,-3.26632 283.2441,-1.24824 l 1e-4,0 c 88.1677,1.90691 174.5797,5.55963 259.2543,9.64352 83.4568,4.00168 165.0027,8.32099 244.7011,11.51983 l -26.219,651.078829 c -85.1583,-3.439966 -168.3774,-7.833121 -249.7212,-11.741344 -82.3108,-3.930875 -162.9432,-7.383266 -241.9152,-9.042543 -83.5873,-1.759122 -166.2629,-1.673454 -247.8934,1.043333 l 0,1e-6 c -90.1115,2.968644 -180.0817,9.059803 -269.671,18.3004 z" /><path
         style="fill:#ffffff;stroke:#0052a0;stroke-width:15.927;stroke-linecap:round;stroke-dasharray:none;stroke-opacity:1"
         d="m 1444.3297,901.952 c 14.0614,26.17167 45.0903,35.73225 37.1215,77.2859"
         id="path3"
         sodipodi:nodetypes="cc" /><path
         style="fill:#002f5c;fill-opacity:1;stroke:none;stroke-width:4.14713;stroke-linecap:round;stroke-dasharray:none;stroke-opacity:1"
         d="m 2289.9647,779.46885 5.2891,-29.98869 c -10.3461,-38.65629 -21.0538,-77.13875 -85.3616,-89.85514 l -74.7028,-17.87896 -55.1427,61.61332 18.9643,69.0262 43.0416,32.44245 c 0,0 154.2996,-34.76337 147.9121,-25.35918 z"
         id="path17"
         sodipodi:nodetypes="cccccccc" /><path
         d="m 1951.2364,-482.80813 c 7.9462,-1.33871 16.2221,-2.09716 24.7244,-2.67443 4.9168,-0.32801 9.8479,-0.58085 14.7928,-0.77016 0.7449,-0.0285 1.3981,0.20401 1.9574,0.69656 0.5594,0.49264 0.8498,1.09113 0.8735,1.79445 l 0.4544,13.52325 c 0.024,0.7034 -0.2198,1.31945 -0.7278,1.8493 -0.508,0.52989 -1.1218,0.8081 -1.8428,0.83576 -4.7867,0.18363 -9.5455,0.42985 -14.2756,0.75027 -9.6249,0.67882 -18.5413,1.50744 -26.5795,3.14025 l 0,0 c -5.1619,1.19751 -9.2113,2.06767 -11.7473,3.24786 -0.2973,0.13835 -0.6375,0.0285 -1.0562,-0.32296 -0.4151,-0.34838 -0.7896,-0.83824 -1.1031,-1.46483 l -27.7504,-55.46794 c -0.315,-0.62967 -0.1886,-1.36606 0.3942,-2.19957 0.5827,-0.83337 1.4381,-1.5004 2.5393,-1.9762 9.3895,-4.05663 18.1034,-6.42762 25.741,-7.75038 12.3056,-2.37289 24.0754,-3.57495 35.1398,-4.26057 l 0,0 c 5.0304,-0.32386 10.0413,-0.58035 15.0319,-0.77884 0.8071,-0.0321 1.5136,0.19739 2.1179,0.6874 0.6043,0.49005 0.9176,1.08738 0.9424,1.7906 l 0.4774,13.52245 c 0.025,0.70332 -0.2394,1.32065 -0.7904,1.85291 -0.5511,0.53236 -1.217,0.81355 -1.9998,0.84477 -4.8416,0.1931 -9.691,0.44334 -14.5475,0.76013 -9.0429,0.57982 -18.3098,1.45759 -27.6972,3.03239 l 1.0021,5.96214 c 9.0946,-1.52682 18.1601,-2.38033 27.0931,-2.95964 2.8597,-0.18736 5.7184,-0.3512 8.5757,-0.49351 0.7757,-0.0386 1.458,0.1852 2.0449,0.67037 0.587,0.48524 0.8951,1.08001 0.9268,1.78301 l 0.5607,12.46313 c 0.032,0.70309 -0.2157,1.32245 -0.7393,1.85917 -0.5237,0.5368 -1.1602,0.82342 -1.9115,0.86112 -2.7679,0.13889 -5.5329,0.29903 -8.2949,0.48242 -8.6121,0.57779 -17.0895,1.36049 -25.3286,2.74718 z m 135.115,13.48064 c 0.1282,0.26095 0.184,0.61526 0.1673,1.06294 -0.017,0.4477 -0.2744,0.88635 -0.7729,1.31618 -0.4272,0.36842 -0.9504,0.54122 -1.5698,0.51853 -5.6028,-0.20522 -11.2021,-0.39699 -16.7982,-0.57333 -2.2203,-0.0671 -4.4359,-0.13363 -6.6469,-0.19864 -2.0673,-0.0608 -3.4868,-0.90185 -4.2656,-2.52516 -2.8421,-6.42144 -5.6956,-12.84045 -8.576,-19.25342 -2.9015,-0.0727 -5.8,-0.13901 -8.6956,-0.19668 l -0.373,18.82022 c -0.014,0.70421 -0.2982,1.30675 -0.8513,1.80826 -0.5532,0.50151 -1.2023,0.74526 -1.948,0.7317 -7.3207,-0.13312 -14.5855,-0.20687 -21.7919,-0.18366 -0.7339,0.002 -1.3684,-0.25058 -1.9052,-0.75951 -0.5368,-0.50883 -0.8085,-1.11492 -0.8138,-1.8188 l -0.4628,-62.00724 c -0.01,-0.7039 0.2791,-1.31432 0.8544,-1.83039 0.5752,-0.51607 1.2613,-0.77641 2.0566,-0.78021 14.0607,-0.0672 27.9471,0.20456 41.6446,0.59565 5.2462,0.1498 9.8576,0.91494 13.8375,2.2765 3.3602,1.13883 6.2858,2.70205 8.7761,4.68599 5.4613,4.35075 8.0412,10.11675 7.7783,17.27882 -0.3193,8.69944 -4.2044,14.85904 -11.6079,18.51545 4.0149,7.4986 8.0015,15.00443 11.9641,22.5168 z m -46.604,-47.79186 -0.2017,10.17829 c 4.3622,0.0863 8.7212,0.19228 13.0764,0.31081 1.533,0.0417 2.7295,-0.37256 3.5914,-1.24458 0.8636,-0.9359 1.3164,-2.10756 1.3572,-3.51542 0.041,-1.40781 -0.3424,-2.63612 -1.1515,-3.68421 -0.7374,-1.11 -1.911,-1.68818 -3.5208,-1.73217 -4.3744,-0.11955 -8.7582,-0.22621 -13.151,-0.31272 z m 135.7731,51.91398 c 0.1253,0.26286 0.1764,0.61799 0.1531,1.0654 -0.023,0.44742 -0.289,0.88221 -0.7973,1.30445 -0.4356,0.36191 -0.9652,0.5267 -1.5888,0.4944 -7.8634,-0.40743 -15.7195,-0.80898 -23.5685,-1.19932 -2.0745,-0.10317 -3.4868,-0.97368 -4.2381,-2.61262 -2.7315,-6.47813 -5.4695,-12.95475 -8.2159,-19.42961 -2.9108,-0.13943 -5.8214,-0.27694 -8.7317,-0.41223 l -0.8736,18.79568 c -0.033,0.70325 -0.3372,1.29772 -0.9132,1.78356 -0.576,0.48584 -1.2436,0.71124 -2.0028,0.6763 -7.4545,-0.34303 -14.9027,-0.67076 -22.3448,-0.97858 -0.758,-0.0313 -1.402,-0.314 -1.9324,-0.84811 -0.5304,-0.53411 -0.7814,-1.15278 -0.7528,-1.85619 l 2.5207,-61.96337 c 0.029,-0.7034 0.3333,-1.29953 0.9141,-1.78821 0.5809,-0.48868 1.2565,-0.71717 2.0265,-0.68535 13.614,0.56269 27.2033,1.18839 40.7686,1.85019 9.5546,0.46613 17.0086,2.92968 22.3605,7.36854 5.3528,4.43963 7.838,10.24203 7.467,17.3999 -0.4505,8.69341 -4.4232,14.79768 -11.9061,18.3249 3.8914,7.56833 7.7751,15.13865 11.6555,22.71027 z m -45.6902,-48.69537 -0.4724,10.16501 c 4.344,0.20188 8.6874,0.4086 13.0302,0.61926 1.5287,0.0741 2.7317,-0.31556 3.6095,-1.16966 0.8808,-0.91799 1.3561,-2.08007 1.4252,-3.48638 0.069,-1.40632 -0.2883,-2.6414 -1.0729,-3.70509 -0.7119,-1.12417 -1.8682,-1.72541 -3.4687,-1.80303 -4.349,-0.21092 -8.6993,-0.41792 -13.0509,-0.62011 z m 134.5733,16.82628 -0.6116,11.69603 c -0.3443,6.58309 -2.3673,11.98871 -6.0701,16.21699 -3.7027,4.22822 -8.415,7.12151 -14.1363,8.67982 -5.7213,1.55833 -12.4,2.13668 -20.0357,1.73553 -6.1898,-0.32519 -11.6856,-1.22453 -16.4876,-2.69785 -1.1226,-0.34411 -2.2073,-0.71959 -3.2539,-1.12642 -5.5277,-2.14858 -9.9085,-5.51958 -13.1463,-10.11142 -3.2377,-4.59163 -4.6815,-10.24366 -4.3302,-16.95424 l 0.5923,-11.31276 c 0.5053,-9.65205 4.4602,-16.68511 11.8649,-21.10348 3.4693,-2.04919 7.3665,-3.55749 11.6904,-4.52597 4.9944,-1.11761 10.56,-1.51511 16.6966,-1.19274 11.4541,0.60172 20.6281,3.48702 27.5248,8.65499 6.9659,5.1715 10.2007,12.51867 9.7027,22.04152 z m -49.2587,-4.41133 -0.8053,15.33888 c -0.1376,2.62039 0.6938,4.68282 2.4941,6.1873 1.8697,1.50812 4.4358,2.34788 7.6983,2.51928 3.2625,0.1714 5.8679,-0.39668 7.8161,-1.70429 2.021,-1.36787 3.1003,-3.36199 3.2379,-5.98239 l 0.7956,-15.14714 c 0.1376,-2.62039 -0.7284,-4.68467 -2.5982,-6.19283 -1.797,-1.56842 -4.3267,-2.43835 -7.5894,-2.60975 -3.2626,-0.1714 -5.9028,0.39489 -7.9205,1.69888 -1.9482,1.30764 -2.9911,3.27166 -3.1286,5.89206 z m 139.6422,45.55997 c 0.1264,0.26256 0.1786,0.61756 0.1565,1.06502 -0.022,0.44745 -0.2876,0.88288 -0.7965,1.30626 -0.4362,0.3629 -0.9672,0.52886 -1.5931,0.49787 -7.8926,-0.39087 -15.7838,-0.78613 -23.6737,-1.18495 -2.0854,-0.10541 -3.5047,-0.97841 -4.2577,-2.61864 -2.7372,-6.48295 -5.4721,-12.96631 -8.205,-19.45004 -2.9169,-0.14887 -5.8337,-0.29818 -8.7505,-0.44787 l -0.9644,18.79127 c -0.036,0.70307 -0.3452,1.29601 -0.9273,1.7788 -0.5822,0.48278 -1.2555,0.70453 -2.0199,0.66524 -7.5048,-0.38577 -15.0084,-0.77396 -22.5109,-1.16384 -0.7641,-0.0397 -1.4108,-0.32967 -1.9399,-0.86989 -0.5291,-0.54021 -0.7754,-1.16184 -0.7388,-1.86489 l 3.222,-61.93231 c 0.037,-0.70305 0.3457,-1.29579 0.9273,-1.77824 0.5816,-0.48244 1.2539,-0.70383 2.017,-0.66417 13.4926,0.7012 26.982,1.39657 40.4684,2.0819 9.4992,0.48272 16.916,2.93739 22.256,7.36906 5.34,4.43164 7.8349,10.22558 7.4804,17.38479 -0.4304,8.69334 -4.3868,14.81002 -11.8742,18.34441 3.9036,7.56442 7.8115,15.12786 11.7243,22.69022 z m -45.6882,-48.73163 -0.5215,10.16263 c 4.3381,0.22263 8.6761,0.44441 13.0142,0.66519 1.527,0.0777 2.7297,-0.30978 3.608,-1.16234 0.8815,-0.91649 1.3579,-2.07785 1.4292,-3.48404 0.071,-1.40619 -0.2834,-2.64175 -1.0642,-3.70669 -0.7081,-1.12536 -1.86,-1.72855 -3.4558,-1.80977 -4.3365,-0.2207 -8.6731,-0.44241 -13.0099,-0.66498 z m 210.9968,22.8066 c 3.0237,-0.0731 6.0473,-0.14724 9.0706,-0.22204 0.8341,-0.0206 1.5354,0.21804 2.1042,0.71608 0.5687,0.49803 0.8619,1.09893 0.8794,1.80272 l 0.3556,14.29966 c 0.017,0.70378 -0.2456,1.31853 -0.7893,1.84419 -0.5438,0.52566 -1.1983,0.79798 -1.9635,0.81691 -3.061,0.0757 -6.123,0.15083 -9.186,0.22487 l 0.1973,8.15765 c 0.017,0.70379 -0.247,1.31836 -0.792,1.84365 -0.545,0.52529 -1.2009,0.79714 -1.9675,0.81549 -7.004,0.16767 -14.0158,0.32926 -21.0354,0.47998 -0.7683,0.0165 -1.4374,-0.22533 -2.0071,-0.72538 -0.5697,-0.50007 -0.8619,-1.10205 -0.8767,-1.8059 l -0.1717,-8.15816 c -9.1161,0.1918 -18.2414,0.36409 -27.3761,0.50635 -2.1873,0.0341 -4.3768,0.0666 -6.5685,0.0967 -0.7702,0.0106 -1.4391,-0.23653 -2.0061,-0.74117 -0.5671,-0.50466 -0.855,-1.10904 -0.864,-1.813 l -0.1814,-14.20696 c -0.014,-1.08793 0.3565,-2.08469 1.1101,-2.99068 2.6947,-3.06576 5.3803,-6.13528 8.0609,-9.20728 7.6523,-8.77008 15.2565,-17.5615 22.835,-26.36801 0.9454,-1.10754 2.2125,-1.67773 3.8024,-1.71121 7.8803,-0.16592 15.7702,-0.34698 23.6697,-0.53624 0.7623,-0.0183 1.4268,0.22182 1.9936,0.72031 0.5669,0.49848 0.8589,1.09958 0.8759,1.80338 z m -25.8397,1.64647 -0.2864,-13.53292 c -3.8949,4.59542 -7.7976,9.18724 -11.7113,13.77462 3.9997,-0.0762 7.9989,-0.15709 11.9977,-0.2417 z m 82.6878,-16.11884 0.4678,19.19444 c 0.044,1.79151 0.7401,3.27892 2.0887,4.46259 1.3471,1.11969 2.9574,1.65696 4.8313,1.61218 1.874,-0.0448 3.4555,-0.69032 4.7456,-1.93694 1.29,-1.24658 1.9153,-2.73353 1.8751,-4.46106 l -0.4467,-19.1949 c -0.042,-1.79153 -0.7368,-3.24777 -2.086,-4.36848 -1.2812,-1.18628 -2.8963,-1.75634 -4.8447,-1.70979 -1.9483,0.0466 -3.5687,0.69389 -4.8608,1.94158 -1.2225,1.24602 -1.8124,2.73291 -1.7703,4.46038 z m 41.7662,0.0326 0.3346,17.4687 c 0.163,8.50947 -2.9373,15.0025 -9.2779,19.48567 -6.2735,4.48317 -14.627,6.8454 -25.0896,7.09553 -10.3959,0.24854 -18.849,-1.71432 -25.3519,-5.90661 -1.4166,-0.91324 -2.6842,-1.93198 -3.8027,-3.05632 -4.011,-4.03599 -6.1028,-9.4302 -6.2723,-16.18596 l -0.4284,-17.08267 c -0.1643,-6.54884 1.6572,-11.93536 5.4677,-16.15628 1.1393,-1.26332 2.4566,-2.42244 3.952,-3.47728 6.4907,-4.57854 14.7845,-6.99674 24.8886,-7.2381 10.106,-0.2414 18.5358,1.77918 25.2604,6.05634 6.7269,4.27857 10.1589,10.61375 10.3195,18.99698 z m 80.617,11.70611 c 3.0055,0.0746 6.0072,0.17236 9.0045,0.30166 0.827,0.0357 1.5044,0.32351 2.0296,0.86137 0.5253,0.53798 0.7684,1.15923 0.7332,1.86229 l -0.7168,14.28599 c -0.035,0.70307 -0.3291,1.29692 -0.8788,1.78264 -0.5499,0.48592 -1.1845,0.7125 -1.9078,0.68098 -2.8933,-0.12607 -5.8096,-0.2209 -8.7483,-0.29319 l -0.2028,8.15738 c -0.017,0.70366 -0.2957,1.30515 -0.8334,1.80468 -0.538,0.49973 -1.1681,0.74198 -1.8937,0.7275 -4.5503,-0.0908 -9.1804,-0.13426 -13.8882,-0.16399 -2.1372,-0.0121 -4.2774,-0.019 -6.4207,-0.0213 -0.7478,-7.7e-4 -1.3938,-0.25688 -1.9386,-0.76874 -0.5447,-0.51186 -0.8179,-1.11957 -0.8184,-1.82357 l -0.01,-8.15994 c -9.3358,0.007 -18.7099,0.0971 -28.1218,0.22173 -1.7802,0.0236 -3.5607,0.0486 -5.3415,0.0747 -0.7601,0.0112 -1.4204,-0.23495 -1.9812,-0.7385 -0.5608,-0.50353 -0.8468,-1.10717 -0.8576,-1.81109 l -0.2187,-14.20624 c -0.017,-1.08785 0.3497,-2.08566 1.1001,-2.99311 2.306,-2.63864 4.6165,-5.27532 6.9321,-7.90985 8.0726,-9.18471 16.2103,-18.34411 24.5155,-27.44575 0.9876,-1.09093 2.298,-1.63824 3.9301,-1.63947 3.1949,-0.002 6.396,0.004 9.6032,0.0221 4.8812,0.024 9.8414,0.0713 14.8784,0.17552 0.8033,0.0166 1.4937,0.28837 2.0676,0.81417 0.5742,0.526 0.8519,1.14113 0.8344,1.84498 z m -25.7726,0.80156 -0,-13.53589 c -4.0184,4.51319 -8.0002,9.04147 -11.9573,13.58107 3.9885,-0.0277 7.9756,-0.0439 11.9615,-0.0452 z"
         id="text17-8"
         style="font-size:96px;font-family:'Rubik Mono One';-inkscape-font-specification:'Rubik Mono One';text-align:center;letter-spacing:1px;text-anchor:middle;fill:#002f5c;stroke-width:4.14713;stroke-linecap:round"
         transform="rotate(37.76092,22.60862,-37.025397)"
         aria-label="ERror 404"
         inkscape:path-effect="#path-effect19"
         inkscape:original-d="m 1990.4821,-466.90103 h 38.304 q 1.056,0 1.824,0.768 0.768,0.768 0.768,1.824 v 13.536 q 0,1.056 -0.768,1.824 -0.768,0.768 -1.824,0.768 h -60.672 q -1.056,0 -1.824,-0.768 -0.768,-0.768 -0.768,-1.824 v -62.016 q 0,-1.056 0.768,-1.824 0.768,-0.768 1.824,-0.768 h 59.712 q 1.056,0 1.824,0.768 0.768,0.768 0.768,1.824 v 13.536 q 0,1.056 -0.768,1.824 -0.768,0.768 -1.824,0.768 h -37.344 v 6.048 h 32.064 q 1.056,0 1.824,0.768 0.768,0.768 0.768,1.824 v 12.48 q 0,1.056 -0.768,1.824 -0.768,0.768 -1.824,0.768 h -32.064 z m 127.912,15.744 q 0.192,0.384 0.192,1.056 0,0.672 -0.672,1.344 -0.576,0.576 -1.44,0.576 h -21.792 q -2.88,0 -4.032,-2.4 l -8.448,-19.008 h -8.064 v 18.816 q 0,1.056 -0.768,1.824 -0.768,0.768 -1.824,0.768 h -20.736 q -1.056,0 -1.824,-0.768 -0.768,-0.768 -0.768,-1.824 v -62.016 q 0,-1.056 0.768,-1.824 0.768,-0.768 1.824,-0.768 h 37.344 q 13.152,0 20.832,6.24 7.68,6.24 7.68,16.992 0,13.056 -10.08,18.912 z m -44.256,-46.368 v 10.176 h 12 q 2.112,0 3.264,-1.344 1.152,-1.44 1.152,-3.552 0,-2.112 -1.152,-3.648 -1.056,-1.632 -3.264,-1.632 z m 126.8561,46.368 q 0.192,0.384 0.192,1.056 0,0.672 -0.672,1.344 -0.576,0.576 -1.44,0.576 h -21.792 q -2.88,0 -4.032,-2.4 l -8.448,-19.008 h -8.064 v 18.816 q 0,1.056 -0.768,1.824 -0.768,0.768 -1.824,0.768 h -20.736 q -1.056,0 -1.824,-0.768 -0.768,-0.768 -0.768,-1.824 v -62.016 q 0,-1.056 0.768,-1.824 0.768,-0.768 1.824,-0.768 h 37.344 q 13.152,0 20.832,6.24 7.68,6.24 7.68,16.992 0,13.056 -10.08,18.912 z m -44.256,-46.368 v 10.176 h 12 q 2.112,0 3.264,-1.344 1.152,-1.44 1.152,-3.552 0,-2.112 -1.152,-3.648 -1.056,-1.632 -3.264,-1.632 z m 124.456,9.888 v 11.712 q 0,9.888 -4.8,16.512 -4.8,6.624 -12.576,9.408 -7.776,2.784 -18.336,2.784 -10.56,0 -18.336,-2.784 -7.776,-2.784 -12.576,-9.408 -4.8,-6.624 -4.8,-16.704 v -11.328 q 0,-14.496 9.888,-21.696 9.984,-7.2 25.824,-7.2 15.84,0 25.728,7.2 9.984,7.2 9.984,21.504 z m -45.504,-1.824 v 15.36 q 0,3.936 2.592,6.048 2.688,2.112 7.2,2.112 4.512,0 7.104,-2.112 2.688,-2.208 2.688,-6.144 v -15.168 q 0,-3.936 -2.688,-6.048 -2.592,-2.208 -7.104,-2.208 -4.512,0 -7.2,2.112 -2.592,2.112 -2.592,6.048 z m 130.5041,38.304 q 0.192,0.384 0.192,1.056 0,0.672 -0.672,1.344 -0.576,0.576 -1.44,0.576 h -21.792 q -2.88,0 -4.032,-2.4 l -8.448,-19.008 h -8.064 v 18.816 q 0,1.056 -0.768,1.824 -0.768,0.768 -1.824,0.768 h -20.736 q -1.056,0 -1.824,-0.768 -0.768,-0.768 -0.768,-1.824 v -62.016 q 0,-1.056 0.768,-1.824 0.768,-0.768 1.824,-0.768 h 37.344 q 13.152,0 20.832,6.24 7.68,6.24 7.68,16.992 0,13.056 -10.08,18.912 z m -44.256,-46.368 v 10.176 h 12 q 2.112,0 3.264,-1.344 1.152,-1.44 1.152,-3.552 0,-2.112 -1.152,-3.648 -1.056,-1.632 -3.264,-1.632 z m 195.056,19.104 h 8.352 q 1.152,0 1.92,0.768 0.768,0.768 0.768,1.824 v 14.304 q 0,1.056 -0.768,1.824 -0.768,0.768 -1.824,0.768 h -8.448 v 8.16 q 0,1.056 -0.768,1.824 -0.768,0.768 -1.824,0.768 h -19.296 q -1.056,0 -1.824,-0.768 -0.768,-0.768 -0.768,-1.824 v -8.16 h -31.104 q -1.056,0 -1.824,-0.768 -0.768,-0.768 -0.768,-1.824 v -14.208 q 0,-1.632 1.056,-2.976 l 29.088,-35.04 q 1.344,-1.632 3.552,-1.632 h 21.888 q 1.056,0 1.824,0.768 0.768,0.768 0.768,1.824 z m -23.808,1.056 v -13.536 l -11.04,13.536 z m 76.4561,-14.112 v 19.2 q 0,2.688 1.824,4.512 1.824,1.728 4.416,1.728 2.592,0 4.416,-1.824 1.824,-1.824 1.824,-4.416 v -19.2 q 0,-2.688 -1.824,-4.416 -1.728,-1.824 -4.416,-1.824 -2.688,0 -4.512,1.824 -1.728,1.824 -1.728,4.416 z m 38.4,0.96 v 17.472 q 0,12.768 -8.928,19.296 -8.832,6.528 -23.328,6.528 -14.4,0 -23.232,-6.528 -8.832,-6.528 -8.832,-19.488 v -17.088 q 0,-12.768 9.12,-19.392 9.12,-6.624 23.04,-6.624 13.92,0 23.04,6.624 9.12,6.624 9.12,19.2 z m 74.152,12.096 h 8.352 q 1.152,0 1.92,0.768 0.768,0.768 0.768,1.824 v 14.304 q 0,1.056 -0.768,1.824 -0.768,0.768 -1.824,0.768 h -8.448 v 8.16 q 0,1.056 -0.768,1.824 -0.768,0.768 -1.824,0.768 h -19.296 q -1.056,0 -1.824,-0.768 -0.768,-0.768 -0.768,-1.824 v -8.16 h -31.104 q -1.056,0 -1.824,-0.768 -0.768,-0.768 -0.768,-1.824 v -14.208 q 0,-1.632 1.056,-2.976 l 29.088,-35.04 q 1.344,-1.632 3.552,-1.632 h 21.888 q 1.056,0 1.824,0.768 0.768,0.768 0.768,1.824 z m -23.808,1.056 v -13.536 l -11.04,13.536 z" /><path
         style="fill:#ffffff;fill-opacity:1;stroke:#0052a0;stroke-width:16.997;stroke-linecap:round;stroke-dasharray:none;stroke-opacity:1"
         d="m 2161.4566,808.55057 -16.0502,57.84574 -38.4877,48.10228 -18.9326,66.33531 c 12.014,-6.48104 19.1852,-36.56798 31.3341,-49.61959 2.2169,-2.38173 14.7159,-3.43633 16.4999,-4.4984 39.0294,-21.9582 50.2676,-58.4558 64.5533,-98.10148 l -51.8092,118.74834 -16.9235,84.16663 c 10.144,-7.8958 6.6,-25.5108 17.0337,-43.02792 7.5181,-12.62188 29.1696,-28.13799 36.0007,-26.0428 l 60.6151,-117.05592 -45.1585,92.22945 -38.0504,124.80659 c 11.6205,-7.2596 10.1171,-19.7928 20.1594,-35.0158 6.5311,-9.9003 25.9651,-26.3077 29.6467,-24.7818 l 36.8906,-75.54219 27.2319,-69.55658 -10.4596,70.8195 c -0.2403,8.25416 -13.6402,34.10621 -17.2135,49.1108 -5.5944,23.49197 -40.4492,110.49557 -40.4492,110.49557 8.6342,-3.2215 26.302,-40.4425 42.6602,-65.7378 11.0956,-17.1576 24.4117,-30.09205 29.4241,-28.3879 l 38.8284,-105.52521 c 10.9165,-11.81738 -24.2246,-143.32707 -79.1343,-153.88483 -43.1578,-8.29815 -90.2688,-28.32534 -109.8845,2.61993 -13.9557,22.01623 31.6751,71.49808 31.6751,71.49808 z"
         id="path4"
         sodipodi:nodetypes="ccccsccccsccccsccccscsccsac" /><path
         style="fill:#ffffff;fill-opacity:1;stroke:#0052a0;stroke-width:8.74184;stroke-linecap:round;stroke-dasharray:none;stroke-opacity:1"
         d="m 2270.7867,982.67592 -17.731,-1.21583 -6.2379,16.01834 16.5074,1.61174 8.8315,-16.29391 z"
         id="path5"
         sodipodi:nodetypes="cccccc" /><path
         style="fill:#ffffff;fill-opacity:1;stroke:#0052a0;stroke-width:8.74184;stroke-linecap:round;stroke-dasharray:none;stroke-opacity:1"
         d="m 2213.9061,973.39922 -21.3209,5.85873 -2.5475,12.8748 14.5433,4.09813 z"
         id="path6"
         sodipodi:nodetypes="ccccc" /><path
         style="fill:#ffffff;fill-opacity:1;stroke:#0052a0;stroke-width:6.99347;stroke-linecap:round;stroke-dasharray:none;stroke-opacity:1"
         d="m 2182.3065,945.1143 -18.6257,-8.75034 -1.702,16.72442 15.9499,-1.50245 z"
         id="path7"
         sodipodi:nodetypes="ccccc" /><path
         style="fill:#ffffff;fill-opacity:1;stroke:#0052a0;stroke-width:5.147;stroke-linecap:round;stroke-dasharray:none;stroke-opacity:1"
         d="m 2139.1455,910.8846 -15.1232,-5.64986 -0.8603,8.30625 8.4945,3.95223 z"
         id="path8"
         sodipodi:nodetypes="ccccc" /><path
         style="fill:#ffffff;fill-opacity:1;stroke:#0052a0;stroke-width:4.14713;stroke-linecap:round;stroke-dasharray:none;stroke-opacity:1"
         d="m 2295.8264,938.69371 -25.3484,-3.58645"
         id="path9"
         sodipodi:nodetypes="cc" /><path
         style="fill:#ffffff;fill-opacity:1;stroke:#0052a0;stroke-width:4.14713;stroke-linecap:round;stroke-dasharray:none;stroke-opacity:1"
         d="m 2299.2701,934.35408 -24.2612,-10.60173"
         id="path10"
         sodipodi:nodetypes="cc" /><path
         style="fill:#ffffff;fill-opacity:1;stroke:#0052a0;stroke-width:4.14713;stroke-linecap:round;stroke-dasharray:none;stroke-opacity:1"
         d="M 2237.4791,931.69189 2216.824,929.1724"
         id="path11"
         sodipodi:nodetypes="cc" /><path
         style="fill:#ffffff;fill-opacity:1;stroke:#0052a0;stroke-width:4.14713;stroke-linecap:round;stroke-dasharray:none;stroke-opacity:1"
         d="m 2245.1149,929.79218 -26.2738,-13.53341"
         id="path12"
         sodipodi:nodetypes="cc" /><path
         style="fill:#ffffff;fill-opacity:1;stroke:#0052a0;stroke-width:4.14713;stroke-linecap:round;stroke-dasharray:none;stroke-opacity:1"
         d="M 2198.9953,915.05662 2169.98,907.64759"
         id="path13"
         sodipodi:nodetypes="cc" /><path
         style="fill:#ffffff;fill-opacity:1;stroke:#0052a0;stroke-width:4.14713;stroke-linecap:round;stroke-dasharray:none;stroke-opacity:1"
         d="m 2202.4899,908.729 -25.1806,-16.58634"
         id="path14"
         sodipodi:nodetypes="cc" /><path
         style="fill:#ffffff;fill-opacity:1;stroke:#0052a0;stroke-width:4.14713;stroke-linecap:round;stroke-dasharray:none;stroke-opacity:1"
         d="m 2159.8474,886.69293 -12.9148,-16.82694"
         id="path15"
         sodipodi:nodetypes="cc" /><g
         id="text17"
         style="font-size:96px;font-family:'Rubik Mono One';-inkscape-font-specification:'Rubik Mono One';text-align:center;letter-spacing:1px;text-anchor:middle;fill:#002f5c;stroke-width:4.14713;stroke-linecap:round"
         transform="rotate(37.76092)"
         aria-label="esta página&#10;no existe"
         inkscape:path-effect="#path-effect20"><path
           d="m 1868.895,-330.80917 c 12.7459,-1.80437 25.5096,-3.5476 38.2904,-5.22172 0.7047,-0.0923 1.3466,0.0821 1.9253,0.52306 0.5787,0.441 0.9134,1.01073 1.0043,1.70902 l 1.7481,13.42628 c 0.091,0.6983 -0.086,1.33457 -0.5294,1.90892 -0.4437,0.57436 -1.016,0.90734 -1.717,0.99915 -20.138,2.63748 -40.2427,5.44764 -60.3119,8.39889 -0.6986,0.10274 -1.3391,-0.0617 -1.9218,-0.49324 -0.5828,-0.43158 -0.9256,-0.99552 -1.0284,-1.69199 l -9.0504,-61.352 c -0.1027,-0.69645 0.066,-1.33617 0.5074,-1.91905 0.4412,-0.58287 1.0166,-0.92673 1.726,-1.03142 20.0581,-2.95981 40.1846,-5.78057 60.3774,-8.43216 0.7142,-0.0938 1.3644,0.0793 1.9502,0.51921 0.5858,0.43989 0.9241,1.00907 1.0152,1.70734 l 1.7518,13.42579 c 0.091,0.69828 -0.089,1.33506 -0.5394,1.91046 -0.4505,0.57542 -1.031,0.90967 -1.7415,1.00296 -12.5633,1.64951 -25.1045,3.36493 -37.6229,5.13889 l 0.8468,5.9894 c 10.7324,-1.52056 21.4807,-2.99803 32.2445,-4.42774 0.709,-0.0942 1.3551,0.0785 1.9378,0.51804 0.5827,0.43951 0.9201,1.00842 1.0122,1.70655 l 1.6336,12.3759 c 0.092,0.69814 -0.085,1.33495 -0.5313,1.91056 -0.4462,0.57561 -1.0219,0.91017 -1.7275,1.00387 -10.7118,1.42253 -21.4107,2.89263 -32.0962,4.40564 z m 92.5226,-36.1323 c 10.7666,0.006 18.5754,1.4649 23.3923,4.30198 4.8783,2.7685 7.6459,7.44069 8.3225,13.99848 0.6767,6.55913 -2.0302,12.20531 -8.0677,16.9668 -6.0407,4.76404 -14.3772,7.73165 -25.0443,8.9618 -10.6678,1.23021 -19.1922,0.30099 -25.6139,-2.84171 -6.3643,-3.21347 -9.922,-7.6645 -10.6426,-13.382 -0.1761,-1.3972 0.4738,-2.18923 1.9506,-2.37435 6.5809,-0.82489 13.1663,-1.63048 19.7563,-2.41571 1.3502,-0.16089 2.4925,0.12291 3.4258,0.85064 2.0028,1.50389 5.218,1.99502 9.6526,1.48483 6.1044,-0.7023 9.058,-1.96014 8.8509,-3.80717 -0.1283,-1.14485 -1.1939,-1.92791 -3.1983,-2.34577 -2.0081,-0.48063 -5.9239,-0.71612 -11.7268,-0.68284 -18.4568,-0.0341 -28.4436,-5.7261 -29.9036,-17.36814 -0.8203,-6.54124 1.4616,-12.18691 6.8891,-16.91644 5.4186,-4.79215 13.1006,-7.78373 23.0282,-8.92552 9.994,-1.14944 18.3171,0.10033 24.9146,3.70739 6.5929,3.54457 10.1172,7.68949 10.607,12.3988 0.066,0.63663 -0.1087,1.16955 -0.5242,1.59886 -0.3506,0.42257 -0.8834,0.67109 -1.5987,0.7459 -6.991,0.73103 -13.9756,1.48714 -20.9538,2.26708 -1.1685,0.13059 -2.2173,-0.13796 -3.1475,-0.80608 -1.716,-1.22353 -4.1347,-1.6586 -7.2512,-1.29991 -4.3506,0.50073 -6.4183,1.64895 -6.2095,3.42798 0.112,0.95381 1.0442,1.61751 2.7955,1.99362 1.7481,0.31326 5.172,0.46077 10.2967,0.46148 z m 42.4815,-28.99486 c 22.6446,-2.20335 45.3663,-4.13523 68.1622,-5.75452 0.7268,-0.0516 1.3728,0.1594 1.9373,0.63288 0.5645,0.47351 0.8711,1.06144 0.9204,1.76356 l 1.0811,15.41477 c 0.049,0.70213 -0.1707,1.32683 -0.659,1.87431 -0.4884,0.5475 -1.0928,0.84673 -1.8134,0.89795 -7.0431,0.50063 -14.0801,1.03153 -21.1111,1.59144 l 3.4995,43.8219 c 0.056,0.70166 -0.1526,1.32812 -0.6254,1.87954 -0.4728,0.55144 -1.062,0.85557 -1.7681,0.91266 -6.6115,0.53451 -13.22,1.09534 -19.8255,1.68139 -0.7054,0.0626 -1.3373,-0.13805 -1.8961,-0.60209 -0.5587,-0.46403 -0.8699,-1.0465 -0.9328,-1.74764 l -3.9328,-43.78935 c -7.0163,0.62827 -14.0264,1.28406 -21.0302,1.96612 -0.7167,0.0698 -1.3605,-0.12446 -1.9319,-0.58291 -0.5713,-0.45843 -0.8918,-1.03785 -0.9609,-1.73849 l -1.5169,-15.38203 c -0.069,-0.70062 0.1335,-1.33152 0.6083,-1.89252 0.4747,-0.56098 1.0733,-0.87672 1.7953,-0.94697 z m 104.4194,59.23386 c -6.0805,0.34953 -12.1586,0.72375 -18.2343,1.12181 -0.5786,0.0379 -1.1055,-0.11972 -1.5811,-0.473 -0.4154,-0.42138 -0.636,-0.8235 -0.6614,-1.20658 -0.025,-0.38307 -0.012,-0.6725 0.039,-0.86831 5.6605,-20.86399 11.5094,-41.70793 17.558,-62.52972 0.4752,-2.1418 1.9066,-3.2816 4.2943,-3.41343 9.217,-0.50889 18.4457,-0.96337 27.6861,-1.36075 2.3938,-0.10295 3.9335,0.89121 4.6168,2.97633 8.0684,20.13084 15.9382,40.30717 23.598,60.52948 0.07,0.18993 0.1114,0.47678 0.123,0.86059 0.012,0.38382 -0.2017,0.80642 -0.6395,1.26809 -0.3753,0.39572 -0.853,0.60261 -1.4334,0.6209 -6.094,0.19204 -12.1859,0.41133 -18.2756,0.65703 -2.0617,0.0832 -3.5564,-0.94229 -4.4874,-3.08045 -0.9014,-2.20334 -1.8052,-4.40608 -2.7116,-6.60824 -7.8968,0.34417 -15.789,0.7319 -23.6766,1.16136 -0.6864,2.28013 -1.3704,4.56056 -2.0519,6.84129 -0.7172,2.21876 -2.104,3.38527 -4.1626,3.5036 z m 24.0835,-29.981 c -2.6218,-6.5411 -5.2645,-13.07743 -7.9277,-19.60902 -2.0116,6.76131 -4.0015,13.52512 -5.97,20.29137 4.6305,-0.24187 9.2631,-0.46944 13.8977,-0.68235 z m 136.4204,-39.96338 c 12.6229,0.36245 25.2646,0.87444 37.921,1.54578 9.6133,0.50992 17.1105,3.20837 22.408,7.99427 5.3037,4.79144 7.6578,10.64959 7.1487,17.54059 -0.5091,6.89168 -3.2415,12.2015 -8.1367,15.96807 -4.8907,3.70275 -12.8197,5.18789 -23.844,4.6058 -4.331,-0.22868 -8.6618,-0.43816 -12.9921,-0.62887 l -0.8067,18.41426 c -0.031,0.70333 -0.3166,1.29931 -0.8566,1.78833 -0.5399,0.48905 -1.1654,0.71841 -1.877,0.68841 -6.9549,-0.29319 -13.9104,-0.5376 -20.8658,-0.73511 -0.7117,-0.0202 -1.3191,-0.29311 -1.8231,-0.81909 -0.504,-0.52595 -0.747,-1.14069 -0.7283,-1.84455 l 1.6501,-62.00262 c 0.019,-0.70383 0.3044,-1.30448 0.858,-1.80153 0.5535,-0.49703 1.2019,-0.73506 1.9445,-0.71374 z m 23.8446,18.73732 -0.4628,10.5498 c 4.2154,0.18634 8.4318,0.39029 12.649,0.61224 1.5274,0.0804 2.7799,-0.29998 3.7597,-1.14329 1.0462,-0.83961 1.6153,-2.05724 1.7044,-3.65458 0.089,-1.5974 -0.3044,-2.93344 -1.184,-4.00765 -0.8794,-1.07397 -2.1232,-1.6547 -3.7285,-1.73927 -4.2471,-0.22375 -8.4931,-0.42937 -12.7378,-0.61725 z m 102.9147,57.90501 c -2.0614,-0.25226 -3.3817,-1.50481 -3.9649,-3.76528 0,0 -0.5389,-2.3206 -1.6429,-6.95888 -7.9279,-0.92592 -15.8604,-1.77692 -23.7962,-2.55571 -1.0319,2.14889 -2.0596,4.29895 -3.0833,6.45015 -1.05,2.08459 -2.6053,3.02776 -4.671,2.83581 -6.1021,-0.56702 -12.2068,-1.09149 -18.3134,-1.57465 -0.5816,-0.046 -1.0835,-0.2779 -1.5062,-0.69594 -0.3531,-0.4768 -0.5152,-0.90643 -0.4855,-1.28922 0.03,-0.38277 0.084,-0.66732 0.1639,-0.85368 8.6387,-19.83403 17.5922,-39.58728 26.8768,-59.25075 0.8059,-2.04482 2.432,-2.95407 4.8766,-2.7174 9.4356,0.91345 18.8757,1.92396 28.3184,3.03556 2.4466,0.28802 3.848,1.52241 4.2024,3.69209 2.7372,11.80586 5.3669,23.61911 7.886,35.43888 2.0113,9.40108 3.9448,18.80389 5.8032,28.20809 0.038,0.19918 0.03,0.48887 -0.023,0.86912 -0.053,0.38028 -0.3366,0.76044 -0.8493,1.14111 -0.4395,0.32629 -0.9487,0.44917 -1.5281,0.36895 -2.4321,-0.33672 -4.8657,-0.66582 -7.3008,-0.98716 -3.6528,-0.48014 -7.3071,-0.94375 -10.9626,-1.39109 z m -13.3692,-50.51454 c -3.0888,6.36139 -6.1416,12.73283 -9.1592,19.11401 4.684,0.47744 9.3676,0.97984 14.0504,1.50772 -1.5942,-6.87651 -3.2248,-13.75048 -4.8912,-20.62173 z m 21.4393,-30.69442 c 1.3056,0.15706 1.8797,0.87234 1.724,2.14244 -0.055,0.44463 -0.2728,0.80481 -0.6542,1.0808 -3.5657,2.14559 -7.112,4.30525 -10.6391,6.47867 -0.6641,0.375 -1.6424,0.489 -2.9358,0.34406 -4.5269,-0.50726 -9.053,-0.99159 -13.5781,-1.45343 -1.0884,-0.11108 -1.5816,-0.67481 -1.4787,-1.69352 0.052,-0.50927 0.2636,-0.9059 0.6368,-1.18967 2.2066,-2.05964 4.4232,-4.11402 6.65,-6.16307 1.0741,-0.98037 2.4087,-1.44989 4.0014,-1.40611 5.4229,0.58732 10.8475,1.20702 16.2737,1.85983 z m 69.994,52.18862 c 9.5332,1.73702 19.0319,3.57142 28.496,5.49517 0.718,0.14595 1.2867,0.52332 1.7055,1.1316 0.4189,0.60831 0.5569,1.25735 0.4152,1.94689 l -2.0485,9.96732 c -1.9583,9.52851 -6.7571,15.9137 -14.3167,19.24433 -7.489,3.28302 -16.5864,3.90012 -27.4339,1.97138 -10.8462,-1.92851 -19.2195,-5.65003 -25.2073,-11.31472 -5.9108,-5.7154 -8.215,-13.41608 -6.7767,-23.1648 l 1.6531,-11.2047 c 0.7193,-4.87534 2.3177,-9.03605 4.823,-12.47866 2.5715,-3.43135 5.8219,-6.01105 9.7508,-7.72632 7.699,-3.32337 17.0366,-4.06989 27.8584,-2.14792 5.3757,0.95472 10.1619,2.45446 14.3457,4.48007 4.2622,1.97519 7.5121,4.10738 9.7552,6.37269 2.3228,2.21637 4.2039,4.51698 5.6478,6.89598 2.5263,4.16228 3.493,7.60007 2.941,10.29345 -0.1157,0.56426 -0.4477,1.01887 -0.9956,1.36424 -0.4697,0.29605 -0.9988,0.38416 -1.5879,0.26456 -7.3966,-1.50178 -14.815,-2.94922 -22.2551,-4.33853 -1.3168,-0.24588 -2.2077,-0.7684 -2.6733,-1.57016 -1.5903,-2.83088 -4.18,-4.574 -7.7593,-5.21177 -3.5125,-0.62587 -6.4178,-0.44729 -8.7007,0.52364 -2.2178,0.98279 -3.4988,2.5189 -3.8517,4.6005 l -2.7271,16.08656 c -0.4278,2.52351 0.2142,4.67574 1.9125,6.46034 1.7101,1.72245 4.3094,2.88675 7.8043,3.50981 3.5596,0.63462 6.3934,0.4714 8.5141,-0.50356 2.1967,-1.0258 3.5019,-2.4407 3.9081,-4.2529 -2.0117,-0.37599 -4.0249,-0.74762 -6.0394,-1.11479 -0.7148,-0.13029 -1.2864,-0.49406 -1.7156,-1.09188 -0.4292,-0.59779 -0.5819,-1.2429 -0.4569,-1.93559 l 1.8913,-10.48457 c 0.125,-0.69266 0.4956,-1.2436 1.1127,-1.65226 0.6171,-0.40863 1.2877,-0.54718 2.011,-0.4154 z m 109.4246,16.92169 c -5.805,-1.48108 -11.6246,-2.9361 -17.4585,-4.36314 l -6.6131,27.0478 c 5.7446,1.40492 11.4779,2.83776 17.1998,4.29659 0.6955,0.17732 1.2328,0.57893 1.6113,1.20439 0.3786,0.62548 0.4801,1.27929 0.3054,1.96131 l -3.5973,14.04367 c -0.1747,0.68204 -0.5761,1.20683 -1.2036,1.57479 -0.6275,0.36798 -1.2851,0.4642 -1.9734,0.2888 -19.8369,-5.05486 -39.7858,-9.79144 -59.8452,-14.12618 -0.696,-0.15041 -1.2432,-0.53008 -1.6423,-1.13952 -0.3991,-0.6094 -0.5253,-1.2582 -0.3777,-1.9466 l 3.039,-14.17444 c 0.1475,-0.68838 0.5312,-1.22808 1.1515,-1.6186 0.6203,-0.39049 1.2835,-0.50969 1.9886,-0.3574 5.865,1.26678 11.7186,2.56708 17.5607,3.8989 l 6.1923,-27.14636 c -5.9418,-1.35399 -11.8983,-2.6764 -17.8695,-3.96523 -0.7178,-0.15493 -1.2839,-0.53851 -1.6989,-1.15123 -0.415,-0.61269 -0.5492,-1.26313 -0.4016,-1.95153 l 3.0389,-14.17445 c 0.1476,-0.68838 0.5392,-1.22645 1.1755,-1.61366 0.6363,-0.3872 1.3183,-0.5025 2.0452,-0.34568 20.9469,4.51909 41.691,9.44188 62.2306,14.68481 0.7127,0.18194 1.2648,0.58753 1.6558,1.21635 0.391,0.62883 0.4987,1.28433 0.324,1.96635 l -3.5973,14.04367 c -0.1748,0.68204 -0.5823,1.20513 -1.2222,1.56975 -0.64,0.36462 -1.3124,0.45686 -2.018,0.27684 z m 68.5785,-2.00689 c 5.7767,1.59266 11.5245,3.18291 17.2448,4.76509 0.6766,0.18714 1.1924,0.59539 1.5475,1.22484 0.3552,0.62941 0.4388,1.28343 0.2512,1.96195 l -16.5254,59.77418 c -0.1876,0.67855 -0.5958,1.19652 -1.2247,1.55384 -0.6289,0.35733 -1.2819,0.44235 -1.9592,0.25506 -4.9564,-1.37065 -9.9173,-2.7431 -14.8838,-4.11368 -1.4807,-0.40861 -2.5363,-1.39676 -3.1671,-2.96471 -4.3665,-10.43101 -8.7632,-20.86225 -13.2275,-31.29387 l -6.8482,25.1978 c -0.1847,0.67935 -0.592,1.19868 -1.2219,1.55815 -0.63,0.35948 -1.2856,0.44679 -1.9673,0.26198 -5.7638,-1.56249 -11.5373,-3.11382 -17.3219,-4.64833 -0.6842,-0.1815 -1.2097,-0.58546 -1.5767,-1.21217 -0.367,-0.62669 -0.4608,-1.28032 -0.281,-1.96096 l 15.8432,-59.95738 c 0.1798,-0.68065 0.5901,-1.20104 1.2311,-1.56108 0.641,-0.36 1.3122,-0.44706 2.0129,-0.26115 5.1595,1.36889 10.2944,2.74624 15.4056,4.12832 1.5145,0.40951 2.5757,1.36039 3.1843,2.85185 4.3361,11.15723 8.5837,22.30903 12.7829,33.45634 l 7.4954,-27.21083 c 0.187,-0.67875 0.5972,-1.19636 1.2306,-1.55297 0.6334,-0.35658 1.292,-0.44065 1.9752,-0.25227 z m 32.3759,78.61544 c -5.8005,-1.57645 -11.6036,-3.16664 -17.4108,-4.76508 -0.5531,-0.15223 -0.9937,-0.47274 -1.3219,-0.96144 -0.2498,-0.53349 -0.3236,-0.98534 -0.2216,-1.35554 0.102,-0.37021 0.2093,-0.6394 0.3217,-0.80757 12.1293,-17.86834 24.2037,-35.76128 36.151,-53.70537 1.0976,-1.89059 2.733,-2.54028 4.9031,-1.95324 8.379,2.26667 16.709,4.48951 24.9943,6.65106 2.145,0.55962 3.219,1.92801 3.2261,4.11164 1.3717,21.47672 2.8988,42.96095 4.6577,64.46241 0.015,0.20153 -0.023,0.48868 -0.1159,0.86141 -0.092,0.3727 -0.4068,0.72347 -0.9439,1.05181 -0.4604,0.28144 -0.9669,0.35354 -1.5189,0.21614 -5.7967,-1.44266 -11.592,-2.9157 -17.3872,-4.41364 -1.9628,-0.50734 -3.0691,-1.91974 -3.3168,-4.23268 -0.201,-2.36703 -0.3998,-4.73393 -0.5965,-7.10069 -7.4514,-1.94881 -14.9085,-3.93697 -22.3743,-5.95265 -1.3488,1.9561 -2.699,3.91153 -4.0506,5.86634 -1.3656,1.88469 -3.0311,2.56096 -4.9955,2.02709 z m 31.5177,-21.26954 c -0.4573,-7.00386 -0.8994,-14.00676 -1.329,-21.00903 -3.8533,5.86192 -7.7237,11.71674 -11.6086,17.56538 4.3183,1.1596 8.6306,2.30826 12.9376,3.44365 z"
           id="path19"
           inkscape:original-d="m 1861.9587,-270.45917 h 38.304 q 1.056,0 1.824,0.768 0.768,0.768 0.768,1.824 v 13.536 q 0,1.056 -0.768,1.824 -0.768,0.768 -1.824,0.768 h -60.672 q -1.056,0 -1.824,-0.768 -0.768,-0.768 -0.768,-1.824 v -62.016 q 0,-1.056 0.768,-1.824 0.768,-0.768 1.824,-0.768 h 59.712 q 1.056,0 1.824,0.768 0.768,0.768 0.768,1.824 v 13.536 q 0,1.056 -0.768,1.824 -0.768,0.768 -1.824,0.768 h -37.344 v 6.048 h 32.064 q 1.056,0 1.824,0.768 0.768,0.768 0.768,1.824 v 12.48 q 0,1.056 -0.768,1.824 -0.768,0.768 -1.824,0.768 h -32.064 z m 95.0801,-24.096 q 15.744,1.824 22.368,6.816 6.72,4.896 6.72,14.784 0,9.888 -9.696,16.032 -9.696,6.144 -25.728,6.144 -16.032,0 -24.96,-5.856 -8.832,-5.952 -8.832,-14.592 0,-2.112 2.208,-2.112 h 19.68 q 2.016,0 3.264,1.248 2.688,2.592 9.312,2.592 9.12,0 9.12,-2.784 0,-1.728 -2.88,-2.688 -2.88,-1.056 -11.424,-2.016 -27.168,-3.264 -27.168,-20.832 0,-9.888 8.736,-15.936 8.736,-6.144 23.328,-6.144 14.688,0 23.712,6.432 9.024,6.336 9.024,13.44 0,0.96 -0.672,1.536 -0.576,0.576 -1.632,0.576 h -20.64 q -1.728,0 -2.976,-1.152 -2.304,-2.112 -6.912,-2.112 -6.432,0 -6.432,2.688 0,1.44 2.496,2.304 2.496,0.768 9.984,1.632 z m 44.2,-24.384 h 66.24 q 1.056,0 1.824,0.768 0.768,0.768 0.768,1.824 v 15.456 q 0,1.056 -0.768,1.824 -0.768,0.768 -1.824,0.768 h -20.64 v 43.968 q 0,1.056 -0.768,1.824 -0.768,0.768 -1.824,0.768 h -19.776 q -1.056,0 -1.824,-0.768 -0.768,-0.768 -0.768,-1.824 v -43.968 h -20.64 q -1.056,0 -1.824,-0.768 -0.768,-0.768 -0.768,-1.824 v -15.456 q 0,-1.056 0.768,-1.824 0.768,-0.768 1.824,-0.768 z m 97.576,67.2 h -18.144 q -0.864,0 -1.536,-0.576 -0.576,-0.672 -0.576,-1.248 0,-0.576 0.096,-0.864 l 20.928,-61.344 q 0.864,-3.168 4.32,-3.168 h 26.688 q 3.456,0 4.32,3.168 l 20.928,61.344 q 0.096,0.288 0.096,0.864 0,0.576 -0.672,1.248 -0.576,0.576 -1.44,0.576 h -18.144 q -3.072,0 -4.32,-3.264 l -2.4,-6.72 h -23.424 l -2.4,6.72 q -1.248,3.264 -4.32,3.264 z m 25.248,-28.704 -6.816,-19.968 -6.816,19.968 z m 131.9841,-38.496 h 35.904 q 13.632,0 21.6,6.624 7.968,6.624 7.968,16.992 0,10.368 -6.72,16.512 -6.72,6.048 -22.848,6.048 h -12.672 v 18.432 q 0,1.056 -0.768,1.824 -0.768,0.768 -1.824,0.768 h -20.64 q -1.056,0 -1.824,-0.768 -0.768,-0.768 -0.768,-1.824 v -62.016 q 0,-1.056 0.768,-1.824 0.768,-0.768 1.824,-0.768 z m 23.328,17.856 v 10.56 h 12.192 q 2.208,0 3.552,-1.344 1.44,-1.344 1.44,-3.744 0,-2.4 -1.344,-3.936 -1.344,-1.536 -3.648,-1.536 z m 104.1041,49.344 q -3.072,0 -4.32,-3.264 0,0 -2.4,-6.72 h -23.424 l -2.4,6.72 q -1.248,3.264 -4.32,3.264 h -18.144 q -0.864,0 -1.536,-0.576 -0.576,-0.672 -0.576,-1.248 0,-0.576 0.096,-0.864 l 20.928,-61.344 q 0.864,-3.168 4.32,-3.168 h 26.688 q 3.456,0 4.32,3.168 l 20.928,61.344 q 0.096,0.288 0.096,0.864 0,0.576 -0.672,1.248 -0.576,0.576 -1.44,0.576 z m -18.432,-48.672 -6.816,19.968 h 13.632 z m 16.704,-32.928 q 1.824,0 1.824,1.92 0,0.672 -0.48,1.152 l -9.12,7.68 q -0.864,0.672 -2.688,0.672 h -12.768 q -1.536,0 -1.536,-1.536 0,-0.768 0.48,-1.248 l 5.568,-6.816 q 1.344,-1.632 3.552,-1.824 z m 72.328,41.088 h 27.84 q 1.056,0 1.824,0.768 0.768,0.768 0.768,1.824 v 10.176 q 0,14.592 -9.984,21.696 -9.888,7.008 -26.208,7.008 -16.32,0 -26.304,-7.008 -9.888,-7.104 -9.888,-21.888 v -11.328 q 0,-7.392 2.784,-13.056 2.88,-5.664 7.968,-9.12 9.984,-6.72 25.44,-6.72 7.68,0 14.016,1.824 6.432,1.728 10.176,4.416 3.84,2.592 6.528,5.664 4.704,5.376 4.704,9.504 0,0.864 -0.672,1.536 -0.576,0.576 -1.44,0.576 h -21.696 q -1.92,0 -2.784,-1.056 -2.976,-3.744 -8.16,-3.744 -5.088,0 -8.064,2.016 -2.88,2.016 -2.88,5.184 v 16.32 q 0,3.84 2.88,6.048 2.88,2.112 8.064,2.112 5.28,0 8.064,-2.016 2.88,-2.112 2.976,-4.896 h -5.952 q -1.056,0 -1.824,-0.768 -0.768,-0.768 -0.768,-1.824 v -10.656 q 0,-1.056 0.768,-1.824 0.768,-0.768 1.824,-0.768 z m 106.312,-7.008 h -17.376 v 27.84 h 17.376 q 1.056,0 1.824,0.768 0.768,0.768 0.768,1.824 v 14.496 q 0,1.056 -0.768,1.824 -0.768,0.768 -1.824,0.768 h -60.864 q -1.056,0 -1.824,-0.768 -0.768,-0.768 -0.768,-1.824 v -14.496 q 0,-1.056 0.768,-1.824 0.768,-0.768 1.824,-0.768 h 17.568 v -27.84 h -17.568 q -1.056,0 -1.824,-0.768 -0.768,-0.768 -0.768,-1.824 v -14.496 q 0,-1.056 0.768,-1.824 0.768,-0.768 1.824,-0.768 h 60.864 q 1.056,0 1.824,0.768 0.768,0.768 0.768,1.824 v 14.496 q 0,1.056 -0.768,1.824 -0.768,0.768 -1.824,0.768 z m 64.3601,-19.68 h 17.856 q 1.056,0 1.824,0.768 0.768,0.768 0.768,1.824 v 62.016 q 0,1.056 -0.768,1.824 -0.768,0.768 -1.824,0.768 h -15.456 q -2.304,0 -3.84,-2.016 l -20.928,-26.688 v 26.112 q 0,1.056 -0.768,1.824 -0.768,0.768 -1.824,0.768 h -17.856 q -1.056,0 -1.824,-0.768 -0.768,-0.768 -0.768,-1.824 v -62.016 q 0,-1.056 0.768,-1.824 0.768,-0.768 1.824,-0.768 h 15.552 q 2.304,0 3.744,1.92 l 20.928,28.896 v -28.224 q 0,-1.056 0.768,-1.824 0.768,-0.768 1.824,-0.768 z m 52.264,67.2 h -18.144 q -0.864,0 -1.536,-0.576 -0.576,-0.672 -0.576,-1.248 0,-0.576 0.096,-0.864 l 20.928,-61.344 q 0.864,-3.168 4.32,-3.168 h 26.688 q 3.456,0 4.32,3.168 l 20.928,61.344 q 0.096,0.288 0.096,0.864 0,0.576 -0.672,1.248 -0.576,0.576 -1.44,0.576 h -18.144 q -3.072,0 -4.32,-3.264 l -2.4,-6.72 h -23.424 l -2.4,6.72 q -1.248,3.264 -4.32,3.264 z m 25.248,-28.704 -6.816,-19.968 -6.816,19.968 z" /><path
           d="m 1979.4549,-272.7301 c 5.8414,-0.64764 11.6831,-1.27759 17.525,-1.88905 0.6909,-0.0723 1.3143,0.12011 1.8696,0.57716 0.5553,0.45706 0.869,1.03586 0.9416,1.73618 l 6.392,61.69174 c 0.073,0.70032 -0.1101,1.33064 -0.5478,1.89111 -0.4376,0.56047 -0.9934,0.87599 -1.6678,0.94676 -4.9354,0.51793 -9.8728,1.04955 -14.8123,1.59435 -1.4726,0.16241 -2.7737,-0.36914 -3.905,-1.5955 -7.6781,-8.09604 -15.422,-16.16185 -23.2268,-24.19836 l 3.0654,25.93757 c 0.083,0.6993 -0.092,1.33233 -0.5234,1.89924 -0.4314,0.5669 -0.9849,0.89055 -1.6608,0.97114 -5.7148,0.68138 -11.4323,1.3791 -17.1523,2.09236 -0.6766,0.0844 -1.2926,-0.0967 -1.8484,-0.5432 -0.5558,-0.44652 -0.8777,-1.01903 -0.9653,-1.71775 l -7.7183,-61.55049 c -0.088,-0.69872 0.088,-1.33365 0.5263,-1.9047 0.4387,-0.57104 1.0035,-0.89971 1.6942,-0.98579 5.0861,-0.63391 10.1725,-1.25587 15.2592,-1.86534 1.5073,-0.1806 2.8078,0.3094 3.8999,1.4691 7.9753,8.75571 15.8875,17.54136 23.7309,26.35785 l -3.132,-28.05477 c -0.078,-0.69977 0.1054,-1.3322 0.5511,-1.89717 0.4456,-0.56495 1.0141,-0.88583 1.705,-0.96244 z m 106.1018,18.16649 0.8168,11.68092 c 0.4596,6.57343 -0.6991,12.17232 -3.4469,16.79544 -2.7489,4.62497 -6.5222,8.04729 -11.3282,10.28101 -4.8069,2.23413 -10.5606,3.62692 -17.2819,4.19895 -6.7216,0.57206 -12.6392,0.17262 -17.7699,-1.21793 -5.1293,-1.39014 -9.4422,-4.12729 -12.9421,-8.22461 -3.4988,-4.09613 -5.591,-9.48514 -6.2493,-16.1726 l -1.1097,-11.27397 c -0.9466,-9.6179 1.5552,-17.13819 7.5579,-22.5294 6.0637,-5.39571 14.3086,-8.5678 24.6802,-9.44758 10.3717,-0.87979 18.9911,0.8623 25.7988,5.16806 6.8716,4.30193 10.6094,11.23102 11.2743,20.74171 z m -44.3178,1.698 1.355,15.29907 c 0.2315,2.61359 1.2431,4.54705 3.0303,5.8033 1.8491,1.25092 4.2186,1.75079 7.1126,1.50471 2.8939,-0.24606 5.1128,-1.13607 6.6616,-2.67596 1.6047,-1.60828 2.3042,-3.7193 2.0931,-6.33434 l -1.2207,-15.11663 c -0.2112,-2.61512 -1.2443,-4.55427 -3.1039,-5.81424 -1.8024,-1.32877 -4.1717,-1.87136 -7.1036,-1.62245 -2.9318,0.24892 -5.2112,1.15408 -6.8335,2.70967 -1.5605,1.55054 -2.2224,3.63321 -1.9909,6.24687 z m 162.8727,14.14758 c 12.155,-0.12136 24.287,-0.11386 36.391,0.0344 0.6675,0.008 1.2405,0.2717 1.7185,0.79024 0.4781,0.51856 0.7118,1.13003 0.7019,1.8341 l -0.1907,13.53759 c -0.01,0.70408 -0.2585,1.30879 -0.745,1.81448 -0.4866,0.50569 -1.059,0.75436 -1.7182,0.74632 -18.9378,-0.23093 -37.9603,-0.11473 -57.0479,0.30127 -0.6644,0.0145 -1.2442,-0.2286 -1.7399,-0.72949 -0.4957,-0.50087 -0.7524,-1.10307 -0.7695,-1.8069 l -1.4991,-62.00033 c -0.017,-0.70382 0.2189,-1.31767 0.7084,-1.84133 0.4895,-0.52363 1.0797,-0.79335 1.7698,-0.80885 19.511,-0.43831 39.0098,-0.56519 58.4777,-0.33553 0.6886,0.008 1.2802,0.27162 1.774,0.79015 0.4938,0.51855 0.7356,1.13002 0.7261,1.83411 l -0.1826,13.53773 c -0.01,0.70409 -0.2655,1.30881 -0.7671,1.81451 -0.5017,0.5057 -1.0924,0.7544 -1.7728,0.74641 -12.0312,-0.14133 -24.08,-0.1455 -36.1418,-0.0236 l 0.062,6.04895 c 10.3196,-0.10408 20.6281,-0.11572 30.9229,-0.0279 0.6781,0.006 1.2614,0.26725 1.7493,0.78409 0.4878,0.51686 0.7278,1.1275 0.7206,1.83162 l -0.1277,12.48225 c -0.01,0.70413 -0.2575,1.30972 -0.7502,1.81714 -0.4928,0.50742 -1.0741,0.75813 -1.7445,0.75244 -10.1793,-0.0864 -20.3763,-0.0751 -30.5881,0.0272 z m 117.3732,18.87943 c 0.1593,0.26793 0.2205,0.65717 0.1839,1.16776 -0.037,0.51059 -0.2778,0.97447 -0.7231,1.39198 -0.3816,0.35787 -0.8379,0.51817 -1.3694,0.48113 -6.3482,-0.44237 -12.7095,-0.83687 -19.0829,-1.18537 -1.6006,-0.0875 -2.7769,-0.88601 -3.5318,-2.39915 -2.6323,-4.9107 -5.2979,-9.81397 -7.9961,-14.70966 -3.0767,4.63273 -6.1256,9.27597 -9.1475,13.92922 -0.9529,1.43584 -2.2015,2.12417 -3.75,2.06753 -6.4331,-0.23535 -12.8776,-0.42665 -19.3326,-0.5758 -0.5379,-0.0124 -1.0116,-0.21516 -1.4216,-0.6084 -0.3487,-0.4559 -0.5177,-0.93973 -0.5063,-1.4517 0.011,-0.51198 0.1098,-0.89397 0.2953,-1.14602 6.8631,-10.66965 13.8624,-21.29094 21.0062,-31.858 -5.6747,-9.68248 -11.4755,-19.33266 -17.3954,-28.94929 -0.181,-0.26039 -0.2656,-0.64657 -0.2534,-1.15849 0.012,-0.51194 0.2101,-0.9555 0.5943,-1.33049 0.4483,-0.43747 0.9541,-0.64928 1.5168,-0.63526 6.7522,0.16822 13.5,0.38135 20.2424,0.64125 1.6234,0.0626 2.9025,0.91519 3.8331,2.55492 2.2602,4.19279 4.499,8.39069 6.7158,12.59359 2.7862,-4.03535 5.5943,-8.06228 8.4249,-12.08047 1.1346,-1.41488 2.4521,-2.08218 3.9477,-2.00028 6.6983,0.36677 13.3904,0.78202 20.0757,1.24761 0.5597,0.039 1.0104,0.29522 1.3517,0.76836 0.4079,0.41374 0.5933,0.87603 0.5569,1.38661 -0.037,0.51058 -0.1569,0.88692 -0.3611,1.129 -7.1835,9.40095 -14.2289,18.86063 -21.1434,28.37417 5.9193,10.7483 11.6789,21.53393 17.2699,32.35525 z m 76.8417,-36.75146 c -0.4151,-0.0549 -0.8303,-0.10946 -1.2454,-0.1638 -5.0638,-0.67043 -10.1346,-1.30655 -15.2121,-1.90926 l -3.2696,27.64286 c 4.9572,0.58961 9.9063,1.21202 14.8468,1.86809 0.4043,0.0527 0.8086,0.10574 1.2129,0.159 0.6467,0.0852 1.1714,0.41314 1.5731,0.98325 0.4018,0.57012 0.555,1.20417 0.4606,1.90178 l -1.9426,14.36451 c -0.094,0.69763 -0.4071,1.26906 -0.9372,1.71495 -0.5301,0.44591 -1.1119,0.62702 -1.7463,0.54365 -0.3967,-0.0521 -0.7933,-0.10399 -1.1899,-0.1556 -17.9993,-2.39549 -36.1308,-4.33405 -54.3762,-5.86039 -0.6471,-0.0541 -1.1849,-0.35543 -1.6139,-0.90432 -0.4291,-0.54886 -0.6154,-1.17388 -0.5579,-1.87537 l 1.183,-14.44394 c 0.057,-0.70147 0.3458,-1.28784 0.866,-1.75864 0.5202,-0.47079 1.1095,-0.67882 1.7671,-0.62378 5.4698,0.45783 10.931,0.95208 16.3831,1.48389 l 2.6992,-27.70134 c -5.5783,-0.54391 -11.1638,-1.0495 -16.7562,-1.51792 -0.6723,-0.0563 -1.2317,-0.35946 -1.679,-0.9099 -0.4472,-0.55042 -0.6427,-1.17622 -0.5852,-1.8777 l 1.183,-14.44394 c 0.057,-0.70146 0.3549,-1.28705 0.8934,-1.75631 0.5384,-0.46923 1.1494,-0.67541 1.8321,-0.61819 19.2479,1.613 38.4324,3.65911 57.5353,6.18308 0.4228,0.0555 0.8456,0.1112 1.2683,0.16719 0.6762,0.0895 1.2263,0.42129 1.6494,0.99458 0.4232,0.57334 0.587,1.20894 0.4926,1.90655 l -1.9426,14.36451 c -0.094,0.69762 -0.4178,1.26747 -0.9692,1.71017 -0.5515,0.44274 -1.1587,0.62007 -1.8226,0.53234 z m 53.3167,13.1662 c 9.6328,2.98793 16.199,6.61029 19.6673,10.68851 3.5506,4.03894 4.6395,9.29221 3.3226,15.75177 -1.3174,6.46255 -5.3652,11.07638 -12.0475,13.93108 -6.6848,2.85577 -14.8296,3.37264 -24.5038,1.66061 -9.6717,-1.71158 -16.8574,-4.83952 -21.6614,-9.53958 -4.7286,-4.74693 -6.7179,-9.94852 -5.8728,-15.6466 0.2065,-1.39219 0.987,-1.98936 2.3435,-1.78621 6.0425,0.90496 12.0879,1.86374 18.136,2.87353 1.2393,0.2069 2.1737,0.78664 2.8009,1.73676 1.3625,1.98444 4.0673,3.3206 8.1274,4.04109 5.5891,0.99182 8.556,0.6123 8.8935,-1.21768 0.2088,-1.13233 -0.5141,-2.17818 -2.1739,-3.13166 -1.6412,-1.01205 -5.0559,-2.32201 -10.2098,-3.86298 -16.3225,-5.02584 -23.7724,-13.04102 -22.0284,-24.6562 0.9783,-6.51572 4.5147,-11.36534 10.7071,-14.47377 6.1949,-3.1679 14.003,-3.97349 23.3269,-2.32265 9.385,1.66165 16.5677,5.2192 21.4709,10.54493 4.9192,5.26701 6.8651,10.24484 5.9275,14.88266 -0.1268,0.62727 -0.4393,1.0863 -0.9369,1.3775 -0.4374,0.30338 -0.9871,0.38831 -1.6496,0.25529 -6.4739,-1.30003 -12.9487,-2.55062 -19.4245,-3.74851 -1.0843,-0.20057 -1.9484,-0.7494 -2.5945,-1.64794 -1.1943,-1.64874 -3.2448,-2.73706 -6.1447,-3.25044 -4.0492,-0.71685 -6.2234,-0.17343 -6.5261,1.58975 -0.1624,0.94623 0.4912,1.83656 1.9567,2.67571 1.4836,0.77988 4.5033,1.85364 9.0936,3.27503 z m 46.6059,-15.59132 c 21.0752,4.52852 42.1056,9.53484 63.0892,14.91125 0.669,0.17142 1.1832,0.56782 1.5418,1.18875 0.3586,0.62094 0.4497,1.27234 0.2738,1.95406 l -3.8605,14.96692 c -0.1758,0.68173 -0.5686,1.20842 -1.1776,1.58053 -0.6091,0.37212 -1.2442,0.47341 -1.9058,0.304 -6.4662,-1.65565 -12.9336,-3.27543 -19.4023,-4.85609 l -10.4423,42.71733 c -0.1672,0.68399 -0.546,1.21737 -1.1357,1.60065 -0.5898,0.3833 -1.2061,0.49675 -1.8497,0.34052 -6.0263,-1.46296 -12.0469,-2.88977 -18.0619,-4.27754 -0.6423,-0.14821 -1.1396,-0.52528 -1.4925,-1.1317 -0.3529,-0.60636 -0.4513,-1.25271 -0.2943,-1.93907 l 9.8034,-42.86725 c -6.4715,-1.48126 -12.9442,-2.91946 -19.418,-4.31133 -0.6624,-0.14242 -1.1808,-0.51526 -1.556,-1.11903 -0.3752,-0.60376 -0.4899,-1.24983 -0.3433,-1.93842 l 3.2178,-15.11772 c 0.1466,-0.68858 0.5172,-1.23134 1.1126,-1.62775 0.5953,-0.3964 1.2294,-0.5225 1.9013,-0.37811 z m 90.653,72.39613 c 12.0849,3.29551 24.2756,6.67279 36.5869,10.07599 0.6788,0.18764 1.1972,0.59652 1.5549,1.22658 0.3578,0.63009 0.443,1.28438 0.2555,1.96297 l -3.6063,13.04687 c -0.1875,0.67859 -0.5969,1.19621 -1.2278,1.55309 -0.6309,0.35685 -1.286,0.44137 -1.9652,0.25365 -19.5094,-5.39269 -38.6477,-10.70215 -57.4738,-15.7064 -0.6553,-0.17419 -1.1552,-0.57168 -1.5002,-1.19283 -0.3451,-0.6211 -0.4276,-1.27192 -0.2473,-1.95242 l 15.8778,-59.94813 c 0.1802,-0.68051 0.5797,-1.20371 1.199,-1.56921 0.6192,-0.36549 1.2647,-0.45905 1.9361,-0.28056 18.9816,5.04609 38.0271,10.3245 57.1926,15.62362 0.6779,0.18743 1.1953,0.59607 1.552,1.2259 0.3568,0.62984 0.4415,1.28403 0.2539,1.96259 l -3.6067,13.04675 c -0.1876,0.67857 -0.5964,1.19636 -1.2263,1.55345 -0.6299,0.35709 -1.284,0.44187 -1.9621,0.25439 -11.9903,-3.31506 -23.9076,-6.61512 -35.7657,-9.84841 l -1.5907,5.83504 c 10.1682,2.77259 20.3863,5.59604 30.6629,8.43758 0.6769,0.18717 1.1936,0.59563 1.5497,1.22533 0.3562,0.62972 0.4405,1.28383 0.2528,1.96239 l -3.3264,12.02864 c -0.1877,0.67856 -0.5961,1.1964 -1.2252,1.55369 -0.6291,0.35728 -1.2821,0.44233 -1.9588,0.25521 -10.274,-2.84075 -20.4714,-5.65861 -30.6009,-8.42081 z"
           id="path20"
           inkscape:original-d="m 1964.4508,-198.93917 h 17.856 q 1.056,0 1.824,0.768 0.768,0.768 0.768,1.824 v 62.016 q 0,1.056 -0.768,1.824 -0.768,0.768 -1.824,0.768 h -15.456 q -2.304,0 -3.84,-2.016 l -20.928,-26.688 v 26.112 q 0,1.056 -0.768,1.824 -0.768,0.768 -1.824,0.768 h -17.856 q -1.056,0 -1.824,-0.768 -0.768,-0.768 -0.768,-1.824 v -62.016 q 0,-1.056 0.768,-1.824 0.768,-0.768 1.824,-0.768 h 15.552 q 2.304,0 3.744,1.92 l 20.928,28.896 v -28.224 q 0,-1.056 0.768,-1.824 0.768,-0.768 1.824,-0.768 z m 106.12,27.744 v 11.712 q 0,9.888 -4.8,16.512 -4.8,6.624 -12.576,9.408 -7.776,2.784 -18.336,2.784 -10.56,0 -18.336,-2.784 -7.776,-2.784 -12.576,-9.408 -4.8,-6.624 -4.8,-16.704 v -11.328 q 0,-14.496 9.888,-21.696 9.984,-7.2 25.824,-7.2 15.84,0 25.728,7.2 9.984,7.2 9.984,21.504 z m -45.504,-1.824 v 15.36 q 0,3.936 2.592,6.048 2.688,2.112 7.2,2.112 4.512,0 7.104,-2.112 2.688,-2.208 2.688,-6.144 v -15.168 q 0,-3.936 -2.688,-6.048 -2.592,-2.208 -7.104,-2.208 -4.512,0 -7.2,2.112 -2.592,2.112 -2.592,6.048 z m 167.7921,22.56 h 38.304 q 1.056,0 1.824,0.768 0.768,0.768 0.768,1.824 v 13.536 q 0,1.056 -0.768,1.824 -0.768,0.768 -1.824,0.768 h -60.672 q -1.056,0 -1.824,-0.768 -0.768,-0.768 -0.768,-1.824 v -62.016 q 0,-1.056 0.768,-1.824 0.768,-0.768 1.824,-0.768 h 59.712 q 1.056,0 1.824,0.768 0.768,0.768 0.768,1.824 v 13.536 q 0,1.056 -0.768,1.824 -0.768,0.768 -1.824,0.768 h -37.344 v 6.048 h 32.064 q 1.056,0 1.824,0.768 0.768,0.768 0.768,1.824 v 12.48 q 0,1.056 -0.768,1.824 -0.768,0.768 -1.824,0.768 h -32.064 z m 125.416,15.552 q 0.288,0.384 0.288,1.152 0,0.768 -0.672,1.44 -0.576,0.576 -1.44,0.576 h -20.64 q -2.592,0 -3.936,-2.208 l -9.312,-14.304 -9.12,14.304 q -1.44,2.208 -3.936,2.208 h -20.736 q -0.864,0 -1.536,-0.576 -0.576,-0.672 -0.576,-1.44 0,-0.768 0.288,-1.152 l 21.216,-32.448 -18.912,-28.416 q -0.288,-0.384 -0.288,-1.152 0,-0.768 0.576,-1.344 0.672,-0.672 1.536,-0.672 h 20.736 q 2.496,0 4.032,2.4 l 7.488,12.288 8.064,-12.48 q 1.632,-2.208 3.936,-2.208 h 20.64 q 0.864,0 1.44,0.672 0.672,0.576 0.672,1.344 0,0.768 -0.288,1.152 l -20.064,29.664 z m 77.4161,-44.352 h -17.376 v 27.84 h 17.376 q 1.056,0 1.824,0.768 0.768,0.768 0.768,1.824 v 14.496 q 0,1.056 -0.768,1.824 -0.768,0.768 -1.824,0.768 h -60.864 q -1.056,0 -1.824,-0.768 -0.768,-0.768 -0.768,-1.824 v -14.496 q 0,-1.056 0.768,-1.824 0.768,-0.768 1.824,-0.768 h 17.568 v -27.84 h -17.568 q -1.056,0 -1.824,-0.768 -0.768,-0.768 -0.768,-1.824 v -14.496 q 0,-1.056 0.768,-1.824 0.768,-0.768 1.824,-0.768 h 60.864 q 1.056,0 1.824,0.768 0.768,0.768 0.768,1.824 v 14.496 q 0,1.056 -0.768,1.824 -0.768,0.768 -1.824,0.768 z m 57.448,4.704 q 15.744,1.824 22.368,6.816 6.72,4.896 6.72,14.784 0,9.888 -9.696,16.032 -9.696,6.144 -25.728,6.144 -16.032,0 -24.96,-5.856 -8.832,-5.952 -8.832,-14.592 0,-2.112 2.208,-2.112 h 19.68 q 2.016,0 3.264,1.248 2.688,2.592 9.312,2.592 9.12,0 9.12,-2.784 0,-1.728 -2.88,-2.688 -2.88,-1.056 -11.424,-2.016 -27.168,-3.264 -27.168,-20.832 0,-9.888 8.736,-15.936 8.736,-6.144 23.328,-6.144 14.688,0 23.712,6.432 9.024,6.336 9.024,13.44 0,0.96 -0.672,1.536 -0.576,0.576 -1.632,0.576 h -20.64 q -1.728,0 -2.976,-1.152 -2.304,-2.112 -6.912,-2.112 -6.432,0 -6.432,2.688 0,1.44 2.496,2.304 2.496,0.768 9.984,1.632 z m 44.2,-24.384 h 66.24 q 1.056,0 1.824,0.768 0.768,0.768 0.768,1.824 v 15.456 q 0,1.056 -0.768,1.824 -0.768,0.768 -1.824,0.768 h -20.64 v 43.968 q 0,1.056 -0.768,1.824 -0.768,0.768 -1.824,0.768 h -19.776 q -1.056,0 -1.824,-0.768 -0.768,-0.768 -0.768,-1.824 v -43.968 h -20.64 q -1.056,0 -1.824,-0.768 -0.768,-0.768 -0.768,-1.824 v -15.456 q 0,-1.056 0.768,-1.824 0.768,-0.768 1.824,-0.768 z m 108.5201,48.48 h 38.304 q 1.056,0 1.824,0.768 0.768,0.768 0.768,1.824 v 13.536 q 0,1.056 -0.768,1.824 -0.768,0.768 -1.824,0.768 h -60.672 q -1.056,0 -1.824,-0.768 -0.768,-0.768 -0.768,-1.824 v -62.016 q 0,-1.056 0.768,-1.824 0.768,-0.768 1.824,-0.768 h 59.712 q 1.056,0 1.824,0.768 0.768,0.768 0.768,1.824 v 13.536 q 0,1.056 -0.768,1.824 -0.768,0.768 -1.824,0.768 h -37.344 v 6.048 h 32.064 q 1.056,0 1.824,0.768 0.768,0.768 0.768,1.824 v 12.48 q 0,1.056 -0.768,1.824 -0.768,0.768 -1.824,0.768 h -32.064 z" /></g><path
         style="fill:#002f5c;fill-opacity:1;stroke:#0052a0;stroke-width:3.34700065;stroke-linecap:round;stroke-dasharray:none;stroke-opacity:1"
         d="m 2221.5572,909.52151 20.6943,14.40973"
         id="path18" /></g></g></svg>
