<?xml version="1.0" encoding="UTF-8" standalone="no"?>
<!-- Created with Inkscape (http://www.inkscape.org/) -->

<svg
   width="167.36952mm"
   height="167.17685mm"
   viewBox="0 0 167.36952 167.17686"
   version="1.1"
   id="svg1"
   xml:space="preserve"
   inkscape:version="1.4 (e7c3feb100, 2024-10-09)"
   sodipodi:docname="figaro_inc_icon.svg"
   xmlns:inkscape="http://www.inkscape.org/namespaces/inkscape"
   xmlns:sodipodi="http://sodipodi.sourceforge.net/DTD/sodipodi-0.dtd"
   xmlns="http://www.w3.org/2000/svg"
   xmlns:svg="http://www.w3.org/2000/svg"><sodipodi:namedview
     id="namedview1"
     pagecolor="#ffffff"
     bordercolor="#000000"
     borderopacity="0.25"
     inkscape:showpageshadow="2"
     inkscape:pageopacity="0.0"
     inkscape:pagecheckerboard="0"
     inkscape:deskcolor="#d1d1d1"
     inkscape:document-units="mm"
     inkscape:zoom="0.39069887"
     inkscape:cx="822.88438"
     inkscape:cy="-117.73773"
     inkscape:window-width="1920"
     inkscape:window-height="1019"
     inkscape:window-x="0"
     inkscape:window-y="0"
     inkscape:window-maximized="1"
     inkscape:current-layer="layer1" /><defs
     id="defs1" /><g
     inkscape:label="Layer 1"
     inkscape:groupmode="layer"
     id="layer1"
     transform="translate(29.529834,200.36187)"><path
       style="fill:#0052a0;fill-opacity:1;stroke:#0052a0;stroke-width:1.29633;stroke-dasharray:none;stroke-opacity:1"
       d="m 48.039437,-195.77548 -10.634194,7.04503 -2.397761,-2.69592 -6.380417,4.22697 -1.286729,4.52484 -2.96692,-1.70689 -8.884965,38.32517 c -12.9453645,-7.00045 -20.8343084,10.0078 -20.8162685,20.93128 0.00573,3.77381 3.5572386,7.69936 3.1050339,11.00021 -0.5558714,4.05738 -9.0849524,7.91902 -5.3436659,12.72088 l -3.2646195,3.386995 -0.148946,2.546845 c 8.3497408,14.450257 6.7586788,35.418734 16.0828304,49.836786 15.4832956,23.941741 52.2909936,-1.050156 70.9728076,-8.969508 l -0.270937,-4.104701 4.104772,-0.270934 -2.966907,-1.706815 3.684688,-1.829057 0.569089,-0.989231 c -0.148437,-2.01586 -0.389552,-6.451449 1.6501,-7.82569 8.091952,-5.453081 35.192012,-20.315647 16.013314,-32.03057 l 20.008148,-18.76382 c -2.03497,-5.13034 1.37937,-5.98102 1.56422,-10.72721 0.3163,-8.12385 0.83615,-17.53564 -0.79828,-25.68738 -4.28327,-21.36231 -25.970891,-36.99045 -47.060054,-38.69948 -6.799507,-0.55093 -18.842433,4.73609 -24.533716,1.46207 m 57.10481,72.33837 -1.97762,-1.13805 c -1.63701,13.18491 -19.045439,19.56202 -22.969823,31.538682 -4.841727,14.776035 0.754596,31.720702 -15.355875,41.183917 -7.066233,4.150787 -14.945264,5.55277 -22.618647,8.048076 -12.237936,3.979736 -24.481287,11.849631 -34.4774852,-1.845261 -4.8985089,-6.710265 -6.1249382,-17.868758 -8.8881562,-25.734439 -2.5729455,-7.32388 -6.2608385,-16.072105 -5.2372199,-24.072929 1.8140805,-14.178556 15.1074011,-17.876536 22.7465093,-27.718546 12.063856,-15.54242 1.212417,-42.12408 24.671318,-48.98743 3.039176,-0.88923 6.937835,-2.40107 10.146706,-1.62164 4.408369,1.07018 3.796438,6.65087 4.687914,10.15551 1.533373,6.02904 6.200099,15.70939 11.572355,19.16186 6.038304,3.88067 16.984844,0.22165 23.190262,-1.7962 2.522204,-0.8202 6.493968,-3.72295 9.157731,-2.19048 3.393221,1.95207 4.514081,12.02846 5.049341,15.6285 0.47705,3.20835 0.76626,6.23983 0.30269,9.38816 m -27.83994,-13.38327 c 7.964985,4.58207 11.236538,11.0231 12.112003,20.13054 8.938983,-4.3217 -0.624183,-26.22245 -12.112003,-20.13054 m -49.501568,-10.04941 0.989044,0.56845 c 7.906712,-4.17109 15.845631,-9.54717 24.20852,-3.18477 1.36789,-6.1888 -5.286955,-9.44914 -10.919383,-8.4754 -6.255961,1.08139 -11.11201,5.90815 -14.278039,11.09119 m 28.084743,26.68608 c -1.512171,-6.69035 -2.609378,-12.63499 -8.725211,-16.86564 -12.327392,-8.52785 -28.327586,2.71606 -28.892846,16.28495 -0.649257,15.58445 19.881212,22.975201 29.801963,11.87939 l 1.978075,1.13767 c -5.303687,21.647102 25.678757,23.69323 33.380321,6.04044 7.18991,-16.48012 -15.305588,-32.16306 -27.542175,-18.47692 m 16.893147,-1.90871 c 17.415748,6.4937 8.075415,34.690578 -9.711788,30.610123 -20.46946,-4.69565 -9.97599,-37.950803 9.711788,-30.610123 m -29.81789,-14.52108 c 17.74639,6.61714 7.708442,34.60629 -9.711717,30.61022 -22.30582,-5.11688 -10.600102,-38.18358 9.711717,-30.61022 m 39.397961,61.933202 1.882407,-14.712257 c 4.729848,0.693347 4.81905,2.824647 2.66901,6.800552 l 1.978146,1.137727 c 2.513,-4.647218 2.789951,-7.440162 -1.951315,-10.336359 4.631217,-3.690913 7.930892,-5.361364 12.314246,-0.813521 -0.265108,-5.062558 -2.916095,-4.78481 -7.342815,-5.540315 4.031667,-3.885809 10.070809,-3.207969 10.533079,3.426849 0.65958,9.467302 -11.611694,19.91521 -20.082561,20.03726 M 14.473085,-137.42753 c -3.181246,-4.58687 -5.9763017,-6.61712 -10.6075469,-2.15326 6.2908329,-0.46215 8.7318059,0.40253 8.7517449,7.66729 -5.8114987,-1.42397 -8.6362508,1.47684 -8.0872859,7.19398 l 3.9824287,-6.92273 c 6.8740172,4.711 -0.7947301,17.0183 -7.2604631,14.90898 -9.873046,-3.22111 -1.78679591,-23.45932 3.900148,-27.3721 6.1418423,-4.22592 10.2130743,0.61316 9.3207613,6.67811 m 46.090654,23.22422 c -7.27507,0.30076 -5.74618,12.13327 1.361933,10.21679 5.730039,-1.54491 4.738598,-10.46865 -1.361933,-10.21679 m -16.042415,-6.81552 c -5.218769,-0.69891 -7.169233,8.41391 -1.774159,9.94811 6.206055,1.7649 9.617863,-8.89808 1.774159,-9.94811 m 21.379542,45.205591 C 50.351741,-80.455975 37.334903,-84.787534 23.1181,-92.966077 18.259327,-95.761111 11.335716,-104.05722 5.2218835,-103.04194 c -8.5606927,1.42181 -7.4892819,13.178617 -5.62109979,18.923376 C 3.8791954,-70.961775 13.215188,-59.629186 26.737,-55.783945 c 11.053951,3.143474 27.195083,4.270438 37.41251,-1.731379 7.132278,-4.189546 12.882484,-14.973854 1.751143,-18.297645 m -2.830466,16.360473 -0.989101,-0.56844 2.871295,-14.14323 c 7.953257,4.575271 4.676384,10.367081 -1.882264,14.712124 m -0.66463,-14.861007 c 0.389551,9.436963 -1.885314,18.289802 -12.787524,17.652461 l 5.715845,-19.088149 7.07175,1.435297 m -9.61846,-1.584764 -6.284876,20.077122 -18.247989,-2.600377 10.938174,-22.44584 13.594762,4.968835 M 9.6926364,-99.373401 1.4565305,-89.632638 c -2.9288729,-5.702808 1.7418544,-12.618812 8.2361059,-9.740763 m 11.2987086,7.816103 -11.3786359,19.779289 c -6.2409988,-5.579539 -10.8394282,-24.819235 2.9272419,-25.299328 2.50557,-0.08749 6.188741,4.218457 8.451394,5.520039 m 15.823411,9.102907 -11.107431,23.884049 c -4.361628,-1.54218 -12.347897,-4.476425 -13.746276,-9.662917 -0.980068,-3.635172 8.082874,-20.639598 11.877554,-21.027979 3.588893,-0.367506 9.906556,5.040975 12.976153,6.806847 m -20.45484,26.404309 c -0.948314,6.373735 10.987667,9.60523 14.983413,5.987041 z"
       id="path1060" /></g></svg>
