<?xml version="1.0" encoding="UTF-8" standalone="no"?>
<!-- Created with Inkscape (http://www.inkscape.org/) -->

<svg
   width="634.96924mm"
   height="125.38264mm"
   viewBox="0 0 634.96924 125.38264"
   version="1.1"
   id="svg1"
   xml:space="preserve"
   inkscape:version="1.4 (e7c3feb100, 2024-10-09)"
   sodipodi:docname="figaro_inc_logo_full.svg"
   xmlns:inkscape="http://www.inkscape.org/namespaces/inkscape"
   xmlns:sodipodi="http://sodipodi.sourceforge.net/DTD/sodipodi-0.dtd"
   xmlns="http://www.w3.org/2000/svg"
   xmlns:svg="http://www.w3.org/2000/svg"><sodipodi:namedview
     id="namedview1"
     pagecolor="#ffffff"
     bordercolor="#000000"
     borderopacity="0.25"
     inkscape:showpageshadow="2"
     inkscape:pageopacity="0.0"
     inkscape:pagecheckerboard="0"
     inkscape:deskcolor="#d1d1d1"
     inkscape:document-units="mm"
     inkscape:zoom="0.46469533"
     inkscape:cx="1083.5056"
     inkscape:cy="111.90128"
     inkscape:window-width="1920"
     inkscape:window-height="1019"
     inkscape:window-x="0"
     inkscape:window-y="0"
     inkscape:window-maximized="1"
     inkscape:current-layer="layer1" /><defs
     id="defs1" /><g
     inkscape:label="Layer 1"
     inkscape:groupmode="layer"
     id="layer1"
     transform="translate(110.6053,154.36695)"><path
       style="fill:#0052a0;fill-opacity:1;stroke:#0052a0;stroke-width:0.914101;stroke-dasharray:none;stroke-opacity:1"
       d="m -50.821505,-147.65136 -7.498648,4.96777 -1.690768,-1.90101 -4.499116,2.98062 -0.907337,3.19067 -2.092104,-1.2036 -6.265196,27.02481 c -9.12836,-4.93634 -14.691206,7.05695 -14.678495,14.759575 0.0043,2.661085 2.508377,5.429168 2.189505,7.756745 -0.391966,2.861045 -6.40621,5.584062 -3.768063,8.970076 l -2.302027,2.388318 -0.105027,1.79589 c 5.887778,10.189534 4.765847,24.975354 11.340732,35.142173 10.917972,16.882402 36.87274,-0.740513 50.04613,-6.324805 l -0.191047,-2.89441 2.894457,-0.191048 -2.092104,-1.203552 2.598242,-1.289751 0.401291,-0.697551 c -0.104669,-1.421474 -0.274688,-4.549208 1.16356,-5.518247 5.706003,-3.845214 24.8154776,-14.325478 11.291711,-22.586213 l 14.10865063,-13.231202 c -1.43495663,-3.617647 0.9726495,-4.217489 1.1030005,-7.564238 0.2230407,-5.72849 0.5895953,-12.36518 -0.5629037,-18.11333 C -3.35739,-136.4572 -18.650307,-147.47731 -33.521231,-148.68242 c -4.794643,-0.38849 -13.286646,3.33963 -17.299826,1.03098 m 40.267175,51.009034 -1.394508,-0.802493 c -1.154327,9.297278 -13.429796,13.794062 -16.197056,22.239354 -3.414123,10.419248 0.532099,22.367697 -10.828126,29.040637 -4.98272,2.926908 -10.538583,3.915509 -15.949424,5.675062 -8.629529,2.806292 -17.262861,8.35571 -24.311638,-1.301177 -3.454152,-4.73171 -4.318965,-12.600067 -6.267441,-18.146514 -1.814295,-5.164398 -4.414804,-11.333166 -3.693002,-16.974909 1.279189,-9.997939 10.65292,-12.605551 16.039597,-19.545597 8.506765,-10.959657 0.854926,-29.703587 17.396859,-34.543247 2.143064,-0.62703 4.892178,-1.6931 7.1549,-1.14349 3.108539,0.75464 2.677038,4.68983 3.305664,7.16111 1.081246,4.25135 4.371966,11.0774 8.160185,13.51189 4.257884,2.73644 11.976785,0.1563 16.352498,-1.26658 1.778521,-0.57836 4.579192,-2.62522 6.457532,-1.54461 2.392707,1.3765 3.183085,8.48182 3.560517,11.02036 0.33639,2.26236 0.540325,4.399981 0.213443,6.620012 m -19.631198,-9.437142 c 5.616468,3.23103 7.923386,7.772886 8.540724,14.194958 6.303279,-3.047434 -0.44014,-18.490628 -8.540724,-14.194958 m -34.905786,-7.08629 0.697414,0.40084 c 5.575379,-2.94122 11.173472,-6.73214 17.070524,-2.24572 0.96456,-4.36401 -3.728071,-6.66302 -7.699751,-5.9764 -4.411362,0.76254 -7.835585,4.16611 -10.068096,7.82091 m 19.803825,18.817555 c -1.066299,-4.717675 -1.839994,-8.909505 -6.152543,-11.892725 -8.692601,-6.01337 -19.975054,1.91522 -20.373644,11.483256 -0.457823,10.989284 14.019132,16.20085 21.014704,8.376691 l 1.394828,0.802215 c -3.739863,15.264351 18.107252,16.707169 23.537974,4.259393 5.069926,-11.620882 -10.792659,-22.679625 -19.421227,-13.028919 m 11.912113,-1.345914 c 12.280632,4.579002 5.694349,24.461897 -6.84822,21.584579 -14.433936,-3.311104 -7.034513,-26.760811 6.84822,-21.584579 M -54.400678,-105.9343 c 12.513774,4.66604 5.435566,24.402442 -6.848174,21.584632 -15.728843,-3.60814 -7.474608,-26.924952 6.848174,-21.584632 m 27.781279,43.671883 1.327367,-10.374275 c 3.335236,0.488907 3.398127,1.991783 1.882044,4.795377 l 1.394873,0.802261 c 1.772031,-3.276962 1.967329,-5.246394 -1.375952,-7.288633 3.265674,-2.60263 5.592427,-3.780542 8.683325,-0.573645 -0.186934,-3.56984 -2.056272,-3.373994 -5.177745,-3.906733 2.842902,-2.740064 7.101379,-2.26208 7.427348,2.416428 0.465095,6.67582 -8.187927,14.043112 -14.161123,14.129175 M -74.49065,-106.50758 c -2.243236,-3.23441 -4.214157,-4.66603 -7.479863,-1.51836 4.435952,-0.32589 6.157191,0.28383 6.17125,5.40655 -4.097948,-1.00411 -6.089804,1.04138 -5.702709,5.072789 l 2.808193,-4.881519 c 4.847174,3.321932 -0.560399,12.000366 -5.119682,10.512979 -6.961933,-2.271349 -1.259951,-16.542209 2.750171,-19.301289 4.330894,-2.97988 7.201703,0.43237 6.572494,4.70904 m 32.500599,16.376443 c -5.129984,0.212075 -4.051892,8.555715 0.960355,7.204307 4.04051,-1.08938 3.341406,-7.381918 -0.960355,-7.204307 m -11.312234,-4.805937 c -3.67999,-0.492833 -5.055347,5.933023 -1.251039,7.014863 4.376168,1.244503 6.781992,-6.274443 1.251039,-7.014863 m 15.075681,31.876503 c -10.964236,-3.273992 -20.143003,-6.32837 -30.167908,-12.095437 -3.426147,-1.970894 -8.30829,-7.820869 -12.619431,-7.104945 -6.036538,1.002587 -5.281029,9.292847 -3.96369,13.343733 3.016901,9.277445 9.600131,17.268565 19.134973,19.980018 7.794635,2.216605 19.176477,3.011279 26.381242,-1.220874 5.029295,-2.954238 9.084021,-10.55874 1.234814,-12.902495 m -1.995895,11.536508 -0.697459,-0.400833 2.024688,-9.97303 c 5.608196,3.22623 3.29753,7.310297 -1.327274,10.374183 m -0.46866,-10.479167 c 0.274686,6.654429 -1.329424,12.896965 -9.017063,12.447547 l 4.030502,-13.459915 4.986606,1.012093 m -6.782404,-1.117489 -4.431747,14.157284 -12.867486,-1.833642 7.713006,-15.827575 9.586272,3.50375 m -30.387894,-16.553235 -5.807656,6.86865 c -2.065276,-4.021314 1.228264,-8.898091 5.807656,-6.86865 m 7.967226,5.511484 -8.023586,13.947269 c -4.400817,-3.934384 -7.643377,-17.501159 2.064129,-17.839695 1.766784,-0.0617 4.363961,2.974622 5.959457,3.892426 m 11.157797,6.418866 -7.832341,16.841725 c -3.075587,-1.08746 -8.70706,-3.156529 -9.693123,-6.813758 -0.691088,-2.563324 5.699596,-14.553912 8.3754,-14.827777 2.530688,-0.259148 6.985563,3.554622 9.150064,4.79981 m -14.423626,18.618875 c -0.668702,4.494408 7.747897,6.773081 10.565477,4.221732 z"
       id="path1060" /><path
       id="text2"
       clip-path="none"
       style="font-style:normal;font-variant:normal;font-weight:normal;font-stretch:normal;font-size:53.239px;font-family:'Rubik Mono One';-inkscape-font-specification:'Rubik Mono One';text-align:center;letter-spacing:0.554572px;writing-mode:lr-tb;direction:ltr;text-anchor:middle;fill:#0052a0;fill-opacity:1;stroke-width:5.44966"
       d="M 134.87636 -112.59121 C 129.16204 -112.59121 124.45941 -111.34879 120.76817 -108.8643 C 118.88706 -107.58657 117.4141 -105.9008 116.34932 -103.80673 C 115.32003 -101.71266 114.80523 -99.299279 114.80523 -96.566344 L 114.80523 -90.28404 C 114.80523 -84.81817 116.63338 -80.771704 120.28913 -78.145246 C 123.98036 -75.554282 128.84261 -74.259178 134.87636 -74.259178 C 140.91011 -74.259178 145.75513 -75.554282 149.41087 -78.145246 C 153.10211 -80.771704 154.94748 -84.782701 154.94748 -90.177586 L 154.94748 -95.820653 C 154.94748 -96.211073 154.80561 -96.548536 154.52167 -96.832477 C 154.23773 -97.116418 153.90026 -97.258291 153.50984 -97.258291 L 138.07099 -97.258291 C 137.68057 -97.258291 137.34311 -97.116418 137.05917 -96.832477 C 136.77523 -96.548536 136.63336 -96.211073 136.63336 -95.820653 L 136.63336 -89.911453 C 136.63336 -89.521034 136.77523 -89.183569 137.05917 -88.899628 C 137.34311 -88.615686 137.68057 -88.473814 138.07099 -88.473814 L 141.37157 -88.473814 C 141.33607 -87.444527 140.7858 -86.539574 139.72102 -85.758735 C 138.69173 -85.013389 137.20103 -84.640457 135.24894 -84.640457 C 133.33233 -84.640457 131.84165 -85.031122 130.77687 -85.811961 C 129.71209 -86.628292 129.18006 -87.746056 129.18006 -89.165762 L 129.18006 -98.216372 C 129.18006 -99.38763 129.71209 -100.3463 130.77687 -101.09165 C 131.87714 -101.83699 133.36783 -102.20941 135.24894 -102.20941 C 137.16554 -102.20941 138.67398 -101.51727 139.77425 -100.13305 C 140.09369 -99.742634 140.60849 -99.547557 141.31834 -99.547557 L 153.35016 -99.547557 C 153.66959 -99.547557 153.93612 -99.653961 154.14908 -99.866917 C 154.39752 -100.11537 154.52167 -100.39911 154.52167 -100.71855 C 154.52167 -102.24473 153.65218 -104.00195 151.91304 -105.98954 C 150.91924 -107.12531 149.71229 -108.17212 148.29259 -109.13043 C 146.90837 -110.12422 145.02754 -110.94051 142.64953 -111.57938 C 140.30701 -112.25374 137.71577 -112.59121 134.87636 -112.59121 z M 271.76723 -112.59121 C 265.91094 -112.59121 261.13738 -111.26012 257.44614 -108.59817 C 253.7904 -105.93622 251.96223 -101.92574 251.96223 -96.566344 L 251.96223 -90.28404 C 251.96223 -86.55731 252.84946 -83.469517 254.62409 -81.020523 C 256.39872 -78.571529 258.72394 -76.83204 261.59885 -75.802753 C 264.47375 -74.773465 267.86304 -74.259178 271.76723 -74.259178 C 275.67142 -74.259178 279.0612 -74.773465 281.93611 -75.802753 C 284.81101 -76.83204 287.13574 -78.571529 288.91037 -81.020523 C 290.685 -83.469517 291.57222 -86.521841 291.57222 -90.177586 L 291.57222 -96.672797 C 291.57222 -101.9612 289.72633 -105.93622 286.03509 -108.59817 C 282.37935 -111.26012 277.62352 -112.59121 271.76723 -112.59121 z M 455.53069 -112.59121 C 447.54484 -112.59121 441.84806 -110.28423 438.44077 -105.67018 C 436.63064 -103.18569 435.72569 -100.1511 435.72569 -96.566344 L 435.72569 -90.28404 C 435.72569 -86.699281 436.63064 -83.66469 438.44077 -81.180203 C 440.25089 -78.731209 442.59334 -76.956253 445.46825 -75.85598 C 448.37864 -74.7912 451.59109 -74.259178 455.10487 -74.259178 C 458.61864 -74.259178 461.67098 -74.667062 464.26194 -75.483393 C 466.8529 -76.335217 468.92933 -77.435762 470.49101 -78.784483 C 473.61436 -81.517418 475.176 -84.534276 475.176 -87.835094 C 475.176 -88.154528 475.05134 -88.420539 474.80289 -88.633495 C 474.58993 -88.881944 474.32392 -89.006082 474.00449 -89.006082 L 462.50494 -89.006082 C 461.7241 -89.006082 461.08516 -88.527262 460.58826 -87.56896 C 460.12686 -86.610658 459.54112 -85.883045 458.83126 -85.386148 C 458.12141 -84.889251 456.96818 -84.640457 455.37101 -84.640457 C 453.80933 -84.640457 452.53145 -85.031122 451.53765 -85.811961 C 450.57935 -86.5928 450.10001 -87.710563 450.10001 -89.165762 L 450.10001 -97.684105 C 450.10001 -99.139305 450.57935 -100.25758 451.53765 -101.03842 C 452.53145 -101.81926 453.80933 -102.20941 455.37101 -102.20941 C 456.96818 -102.20941 458.12141 -101.96113 458.83126 -101.46424 C 459.54112 -100.96734 460.12686 -100.23973 460.58826 -99.281423 C 461.08516 -98.323121 461.7241 -97.843785 462.50494 -97.843785 L 474.00449 -97.843785 C 474.32392 -97.843785 474.58993 -97.950189 474.80289 -98.163145 C 475.05134 -98.411594 475.176 -98.695856 475.176 -99.01529 C 475.176 -102.31611 473.61436 -105.33297 470.49101 -108.0659 C 468.92933 -109.41462 466.8529 -110.49692 464.26194 -111.31325 C 461.67098 -112.16507 458.76052 -112.59121 455.53069 -112.59121 z M 26.863312 -112.05842 C 26.472893 -112.05842 26.135945 -111.91655 25.852004 -111.63261 C 25.568062 -111.34867 25.425673 -111.01172 25.425673 -110.6213 L 25.425673 -76.229084 C 25.425673 -75.838665 25.568062 -75.5012 25.852004 -75.217259 C 26.135945 -74.933317 26.472893 -74.791445 26.863312 -74.791445 L 38.362868 -74.791445 C 38.753287 -74.791445 39.090752 -74.933317 39.374693 -75.217259 C 39.658635 -75.5012 39.800506 -75.838665 39.800506 -76.229084 L 39.800506 -86.770042 L 57.263006 -86.770042 C 57.653426 -86.770042 57.990373 -86.911914 58.274314 -87.195856 C 58.558255 -87.479797 58.700128 -87.817262 58.700128 -88.207681 L 58.700128 -96.246467 C 58.700128 -96.636886 58.558255 -96.974349 58.274314 -97.258291 C 57.990373 -97.542232 57.653426 -97.684105 57.263006 -97.684105 L 39.800506 -97.684105 L 39.800506 -101.09165 L 60.72326 -101.09165 C 61.113679 -101.09165 61.451143 -101.23352 61.735085 -101.51746 C 62.019026 -101.8014 62.160899 -102.13835 62.160899 -102.52877 L 62.160899 -110.6213 C 62.160899 -111.01172 62.019026 -111.34867 61.735085 -111.63261 C 61.451143 -111.91655 61.113679 -112.05842 60.72326 -112.05842 L 26.863312 -112.05842 z M 71.659544 -112.05842 C 71.269124 -112.05842 70.932177 -111.91655 70.648236 -111.63261 C 70.364294 -111.34867 70.221905 -111.01172 70.221905 -110.6213 L 70.221905 -102.582 C 70.221905 -102.19158 70.364294 -101.85463 70.648236 -101.57069 C 70.932177 -101.28675 71.269124 -101.14488 71.659544 -101.14488 L 81.402102 -101.14488 L 81.402102 -85.705508 L 71.659544 -85.705508 C 71.269124 -85.705508 70.932177 -85.563635 70.648236 -85.279694 C 70.364294 -84.995752 70.221905 -84.658289 70.221905 -84.26787 L 70.221905 -76.229084 C 70.221905 -75.838665 70.364294 -75.5012 70.648236 -75.217259 C 70.932177 -74.933317 71.269124 -74.791445 71.659544 -74.791445 L 105.41304 -74.791445 C 105.80346 -74.791445 106.14041 -74.933317 106.42435 -75.217259 C 106.70829 -75.5012 106.85068 -75.838665 106.85068 -76.229084 L 106.85068 -84.26787 C 106.85068 -84.658289 106.70829 -84.995752 106.42435 -85.279694 C 106.14041 -85.563635 105.80346 -85.705508 105.41304 -85.705508 L 95.776935 -85.705508 L 95.776935 -101.14488 L 105.41304 -101.14488 C 105.80346 -101.14488 106.14041 -101.28675 106.42435 -101.57069 C 106.70829 -101.85463 106.85068 -102.19158 106.85068 -102.582 L 106.85068 -110.6213 C 106.85068 -111.01172 106.70829 -111.34867 106.42435 -111.63261 C 106.14041 -111.91655 105.80346 -112.05842 105.41304 -112.05842 L 71.659544 -112.05842 z M 172.91124 -112.05842 C 171.6335 -112.05842 170.83496 -111.4732 170.51553 -110.30194 L 158.90952 -76.282311 C 158.87402 -76.175833 158.85629 -76.015709 158.85629 -75.802753 C 158.85629 -75.589797 158.9627 -75.359255 159.17565 -75.110806 C 159.4241 -74.89785 159.70785 -74.791445 160.02728 -74.791445 L 170.08971 -74.791445 C 171.22547 -74.791445 172.02403 -75.394921 172.48543 -76.601671 L 173.8161 -80.328058 L 186.80652 -80.328058 L 188.13771 -76.601671 C 188.59911 -75.394921 189.39765 -74.791445 190.53342 -74.791445 L 200.59534 -74.791445 C 200.91477 -74.791445 201.18131 -74.89785 201.39426 -75.110806 C 201.64271 -75.359255 201.76685 -75.589797 201.76685 -75.802753 C 201.76685 -76.015709 201.74912 -76.175833 201.71362 -76.282311 L 190.10761 -110.30194 C 189.78818 -111.4732 188.98962 -112.05842 187.71189 -112.05842 L 172.91124 -112.05842 z M 209.61495 -112.05842 C 209.22453 -112.05842 208.88758 -111.91655 208.60364 -111.63261 C 208.3197 -111.34867 208.17783 -111.01172 208.17783 -110.6213 L 208.17783 -76.229084 C 208.17783 -75.838665 208.3197 -75.5012 208.60364 -75.217259 C 208.88758 -74.933317 209.22453 -74.791445 209.61495 -74.791445 L 221.11502 -74.791445 C 221.50544 -74.791445 221.84239 -74.933317 222.12633 -75.217259 C 222.41027 -75.5012 222.55214 -75.838665 222.55214 -76.229084 L 222.55214 -86.663589 L 227.02422 -86.663589 L 231.70921 -76.122114 C 232.13512 -75.234797 232.88047 -74.791445 233.94525 -74.791445 L 246.03081 -74.791445 C 246.35024 -74.791445 246.61625 -74.89785 246.82921 -75.110806 C 247.07766 -75.359255 247.2018 -75.607532 247.2018 -75.85598 C 247.2018 -76.104429 247.1663 -76.300021 247.09535 -76.441991 L 240.54691 -88.686721 C 244.27364 -90.851773 246.13727 -94.347967 246.13727 -99.17497 C 246.13727 -103.15015 244.7175 -106.29114 241.87809 -108.59817 C 239.03867 -110.90519 235.18781 -112.05842 230.32531 -112.05842 L 209.61495 -112.05842 z M 346.50582 -112.05842 C 346.1154 -112.05842 345.77845 -111.91655 345.49451 -111.63261 C 345.21057 -111.34867 345.06869 -111.01172 345.06869 -110.6213 L 345.06869 -102.582 C 345.06869 -102.19158 345.21057 -101.85463 345.49451 -101.57069 C 345.77845 -101.28675 346.1154 -101.14488 346.50582 -101.14488 L 356.24889 -101.14488 L 356.24889 -85.705508 L 346.50582 -85.705508 C 346.1154 -85.705508 345.77845 -85.563635 345.49451 -85.279694 C 345.21057 -84.995752 345.06869 -84.658289 345.06869 -84.26787 L 345.06869 -76.229084 C 345.06869 -75.838665 345.21057 -75.5012 345.49451 -75.217259 C 345.77845 -74.933317 346.1154 -74.791445 346.50582 -74.791445 L 380.25931 -74.791445 C 380.64972 -74.791445 380.9872 -74.933317 381.27114 -75.217259 C 381.55508 -75.5012 381.69695 -75.838665 381.69695 -76.229084 L 381.69695 -84.26787 C 381.69695 -84.658289 381.55508 -84.995752 381.27114 -85.279694 C 380.9872 -85.563635 380.64972 -85.705508 380.25931 -85.705508 L 370.62321 -85.705508 L 370.62321 -101.14488 L 380.25931 -101.14488 C 380.64972 -101.14488 380.9872 -101.28675 381.27114 -101.57069 C 381.55508 -101.85463 381.69695 -102.19158 381.69695 -102.582 L 381.69695 -110.6213 C 381.69695 -111.01172 381.55508 -111.34867 381.27114 -111.63261 C 380.9872 -111.91655 380.64972 -112.05842 380.25931 -112.05842 L 346.50582 -112.05842 z M 392.20742 -112.05842 C 391.817 -112.05842 391.47954 -111.91655 391.1956 -111.63261 C 390.91166 -111.34867 390.76978 -111.01172 390.76978 -110.6213 L 390.76978 -76.229084 C 390.76978 -75.838665 390.91166 -75.5012 391.1956 -75.217259 C 391.47954 -74.933317 391.817 -74.791445 392.20742 -74.791445 L 402.10966 -74.791445 C 402.50008 -74.791445 402.83753 -74.933317 403.12148 -75.217259 C 403.40542 -75.5012 403.5473 -75.838665 403.5473 -76.229084 L 403.5473 -90.709854 L 415.15331 -75.909207 C 415.72119 -75.163861 416.43106 -74.791445 417.28289 -74.791445 L 425.85446 -74.791445 C 426.24487 -74.791445 426.58183 -74.933317 426.86577 -75.217259 C 427.14971 -75.5012 427.29158 -75.838665 427.29158 -76.229084 L 427.29158 -110.6213 C 427.29158 -111.01172 427.14971 -111.34867 426.86577 -111.63261 C 426.58183 -111.91655 426.24487 -112.05842 425.85446 -112.05842 L 415.95171 -112.05842 C 415.56129 -112.05842 415.22434 -111.91655 414.9404 -111.63261 C 414.65646 -111.34867 414.51459 -111.01172 414.51459 -110.6213 L 414.51459 -94.969025 L 402.90806 -110.99389 C 402.37567 -111.70374 401.68404 -112.05842 400.83222 -112.05842 L 392.20742 -112.05842 z M 33.022109 -106.9161 L 35.248846 -106.9161 L 35.248846 -81.824091 L 33.022109 -81.824091 L 33.022109 -106.9161 z M 29.160846 -106.89181 L 31.387583 -106.89181 L 31.387583 -81.799286 L 29.160846 -81.799286 L 29.160846 -106.89181 z M 267.75558 -103.68994 L 278.89237 -101.56862 L 282.62341 -90.863333 L 275.21818 -82.27936 L 264.08139 -84.400678 L 260.35035 -95.105968 L 267.75558 -103.68994 z M 222.55214 -102.15618 L 229.20703 -102.15618 C 230.02336 -102.15618 230.62684 -101.8547 231.01726 -101.25133 C 231.44317 -100.68345 231.65598 -100.00904 231.65598 -99.228197 C 231.65598 -98.447359 231.44317 -97.790681 231.01726 -97.258291 C 230.59135 -96.761393 229.98787 -96.513117 229.20703 -96.513117 L 222.55214 -96.513117 L 222.55214 -102.15618 z M 180.31131 -101.7836 L 184.09144 -90.709854 L 176.5317 -90.709854 L 180.31131 -101.7836 z M 495.21612 -87.462507 C 494.8257 -87.462507 494.48823 -87.320117 494.20429 -87.036176 C 493.92035 -86.752234 493.77848 -86.415287 493.77848 -86.024868 L 493.77848 -76.229084 C 493.77848 -75.838665 493.92035 -75.5012 494.20429 -75.217259 C 494.48823 -74.933317 494.8257 -74.791445 495.21612 -74.791445 L 506.39632 -74.791445 C 506.78674 -74.791445 507.12368 -74.933317 507.40762 -75.217259 C 507.69156 -75.5012 507.83344 -75.838665 507.83344 -76.229084 L 507.83344 -86.024868 C 507.83344 -86.415287 507.69156 -86.752234 507.40762 -87.036176 C 507.12368 -87.320117 506.78674 -87.462507 506.39632 -87.462507 L 495.21612 -87.462507 z " /><path
       sodipodi:type="star"
       style="fill:#0052a0;fill-opacity:1;stroke:none;stroke-width:2.6;stroke-opacity:1"
       id="path2-0"
       inkscape:flatsided="true"
       sodipodi:sides="6"
       sodipodi:cx="87.547386"
       sodipodi:cy="-80.680946"
       sodipodi:r1="4.6194339"
       sodipodi:r2="4.0005469"
       sodipodi:arg1="0.18822151"
       sodipodi:arg2="0.71182028"
       inkscape:rounded="0"
       inkscape:randomized="0"
       d="m 92.085234,-79.816594 -3.017475,3.497715 -4.537848,-0.864352 -1.520373,-4.362067 3.017475,-3.497716 4.537848,0.864352 z"
       transform="matrix(2.8233199,0,0,2.8233199,66.80501,161.86693)" /><path
       style="fill:none;fill-opacity:1;stroke:#0052a0;stroke-width:2.6;stroke-linecap:round;stroke-opacity:1"
       d="m 323.10382,-67.2867 c -2.89578,-10.026417 -14.35398,-31.108521 -26.85189,-36.64032"
       id="path3"
       inkscape:transform-center-x="5.5893692"
       inkscape:transform-center-y="2.4841641"
       sodipodi:nodetypes="cc" /><path
       style="fill:none;fill-opacity:1;stroke:#0052a0;stroke-width:2.6;stroke-linecap:round;stroke-opacity:1"
       d="m 319.96066,-66.042369 c -2.89578,-10.026417 -11.21082,-23.16587 -23.70873,-28.697669"
       id="path3-6"
       inkscape:transform-center-x="5.5893692"
       inkscape:transform-center-y="2.4841641"
       sodipodi:nodetypes="cc" /><path
       style="fill:none;fill-opacity:1;stroke:#0052a0;stroke-width:2.6;stroke-linecap:round;stroke-opacity:1"
       d="m 318.32884,-64.729341 c -2.89578,-10.026417 -9.579,-15.291916 -22.07691,-20.823715"
       id="path3-0"
       inkscape:transform-center-x="5.5893692"
       inkscape:transform-center-y="2.4841641"
       sodipodi:nodetypes="cc" /></g></svg>
