<?xml version="1.0" encoding="UTF-8" standalone="no"?>
<!-- Created with Inkscape (http://www.inkscape.org/) -->

<svg
   width="167.36952mm"
   height="167.17685mm"
   viewBox="0 0 167.36952 167.17686"
   version="1.1"
   id="svg1"
   xml:space="preserve"
   inkscape:version="1.4 (e7c3feb100, 2024-10-09)"
   sodipodi:docname="figaro_inc_icon.svg"
   inkscape:export-filename="256.png"
   inkscape:export-xdpi="38.850563"
   inkscape:export-ydpi="38.850563"
   xmlns:inkscape="http://www.inkscape.org/namespaces/inkscape"
   xmlns:sodipodi="http://sodipodi.sourceforge.net/DTD/sodipodi-0.dtd"
   xmlns="http://www.w3.org/2000/svg"
   xmlns:svg="http://www.w3.org/2000/svg"><sodipodi:namedview
     id="namedview1"
     pagecolor="#ffffff"
     bordercolor="#000000"
     borderopacity="0.25"
     inkscape:showpageshadow="2"
     inkscape:pageopacity="0.0"
     inkscape:pagecheckerboard="0"
     inkscape:deskcolor="#d1d1d1"
     inkscape:document-units="mm"
     inkscape:zoom="0.19133819"
     inkscape:cx="240.41202"
     inkscape:cy="1118.4385"
     inkscape:window-width="1920"
     inkscape:window-height="1019"
     inkscape:window-x="0"
     inkscape:window-y="0"
     inkscape:window-maximized="1"
     inkscape:current-layer="layer1"
     inkscape:lockguides="true" /><defs
     id="defs1" /><g
     inkscape:label="Layer 1"
     inkscape:groupmode="layer"
     id="layer1"
     transform="translate(29.529834,200.36187)"><rect
       style="fill:#ffeeaa;stroke:none;stroke-width:0.88556;stroke-linecap:round"
       id="rect1"
       width="165.93518"
       height="166.45052"
       x="-29.014507"
       y="-199.84654"
       ry="29.328733" /><path
       style="fill:#ffffff;stroke:none;stroke-width:18.2688;stroke-linecap:round;stroke-dasharray:none"
       d="m 411.03197,593.69508 c -22.73341,-3.60045 -63.27195,-10.37671 -90.08562,-15.05837 l -48.75213,-8.5121 -31.63493,-1.31442 C 174.67791,566.07285 120.85312,508.971 115.04313,490.66533 c -0.65672,-2.06914 0.70473,-9.68459 3.02545,-16.92322 6.47596,-20.19929 -3.23889,-76.6915 -8.55893,-118.73326 -8.09061,-63.93631 22.88746,-96.03896 34.64364,-121.71785 8.52703,-18.6255 33.88868,-41.2711 62.17187,-55.51372 23.74881,-11.95924 29.82937,-9.38953 43.49226,18.38031 10.99,22.3372 21.41416,37.01593 39.96184,56.2721 31.58161,32.78798 56.97812,43.19821 87.99919,36.07158 19.43213,-4.46424 65.78245,-29.999 86.86671,-47.85558 5.68828,-4.81749 13.42981,-10.33317 17.20339,-12.25705 6.05599,-3.08752 7.4763,-3.17982 12.1042,-0.78664 6.64435,3.43593 13.58542,12.53562 23.3006,30.54695 8.18568,15.17572 23.71786,51.20818 25.90934,60.10603 1.24098,5.0386 1.00503,5.29679 -3.74986,4.10338 l -5.07417,-1.27353 1.31467,12.36388 c 2.54811,23.96395 -5.48184,46.05179 -34.51,94.92596 -27.98455,47.11709 -34.72389,67.75616 -30.71796,94.07309 3.10063,20.36964 2.89219,44.48272 -0.48145,55.69243 -3.39452,11.27915 -10.76436,22.45647 -14.67245,22.25267 -1.59829,-0.0833 -21.50607,-3.09734 -44.2395,-6.69778 z"
       id="path4"
       transform="matrix(0.26458333,0,0,0.26458333,-29.529834,-200.36187)"
       sodipodi:nodetypes="sscssssssssssssssscssssss" /><path
       style="fill:#000000;fill-opacity:1;stroke:#1a1a1a;stroke-width:2.84845;stroke-dasharray:none;stroke-opacity:1"
       d="m 18.313643,-183.52898 -10.92704,12.75472 -4.0081843,-2.54963 -6.5561168,7.65271 0.00163,6.19385 -4.3724208,-1.09201 2.563606,51.7356 c -18.9167341,-4.19858 -22.7759141,20.183432 -18.8154911,34.00982 1.367611,4.776878 7.280073,8.467779 7.897278,12.810792 0.758633,5.338413 121.065846,26.004619 123.153376,23.529125 8.28154,-9.822376 37.24205,-38.412232 8.73235,-46.334033 l 18.57343,-30.973764 c -4.42633,-5.76324 -0.40923,-8.07127 -1.88599,-14.1482 -2.52786,-10.40161 -5.2622,-22.50758 -10.27037,-32.24132 -13.12456,-25.50806 -46.222017,-37.48096 -73.54421,-32.04318 -8.809122,1.75328 -22.153796,12.78964 -30.541103,10.69513 m 98.390093,71.02078 -2.9146,-0.7283 c 2.67973,17.286732 -17.066569,31.637545 -17.718976,48.218741 C 111.0437,2.9899122 -5.9947644,-61.039936 0.73494043,-73.087544 10.409382,-97.118235 -9.2742842,-133.95632 17.95874,-151.10388 c 3.5281,-2.22161 7.920175,-5.54145 12.264668,-5.71117 5.968285,-0.23382 7.205031,7.05382 9.597263,11.17057 4.115056,7.0821 13.514206,17.65854 21.561838,20.09403 9.045435,2.73766 21.588563,-5.84182 28.71939,-10.63396 2.898314,-1.94787 6.8816,-7.05542 10.807241,-6.07498 5.00064,1.24882 10.05225,13.60499 12.02779,17.97091 1.76062,3.89091 3.21962,7.62557 3.76745,11.77955 m -11.2764,69.95476 -2.91953,-19.309331 c 6.23954,-0.82695 7.12077,1.839855 5.83126,7.649744 l 2.91513,0.727695 c 1.50715,-6.79084 0.8511,-10.427502 -6.19696,-12.386004 4.53423,-6.343375 8.11063,-9.648174 15.30081,-5.469099 -2.1606,-6.315383 -5.41754,-5.008058 -11.29563,-4.369092 3.70475,-6.374062 11.59673,-7.692604 14.57376,0.542726 4.24793,11.751106 -7.52558,29.405167 -18.20861,32.613208 M -3.1602968,-97.540752 c -5.6819772,-4.661828 -9.9533222,-6.225288 -14.2089932,1.096899 7.7997692,-2.852883 11.202573,-2.637784 13.8465419,6.554705 -7.8726539,0.291636 -10.4041099,4.983301 -7.6480819,12.025268 l 2.547696,-10.202103 c 10.4030418,3.487879 5.1281689,21.837514 -3.820022,21.497078 -13.663785,-0.520101 -10.719053,-29.06348 -4.927861,-36.068375 6.254377,-7.56542 13.1542965,-2.90504 14.2105466,5.096937"
       id="path1060"
       sodipodi:nodetypes="ccccccccccccccccccccccccccscccccccccccccccccc" /><path
       style="fill:#ffffff;stroke:none;stroke-width:18.2688;stroke-linecap:round;stroke-dasharray:none"
       d="m 59.088425,498.45208 c -6.3625,-1.52453 -16.186655,-12.29421 -19.833621,-21.74251 -2.655408,-6.87944 -3.414284,-14.65858 -3.414284,-34.99938 0,-14.38464 0.661629,-29.25404 1.470287,-33.0431 1.38158,-6.47356 2.266508,-7.14565 14.667388,-11.13962 21.240822,-6.84107 27.7957,-5.20997 34.959354,8.69917 2.947374,5.7227 2.921348,5.78119 -3.148225,7.07498 -21.82962,4.65321 -29.291814,24.27528 -19.930175,52.40701 6.445489,19.3687 6.764243,19.16064 13.764284,-8.98417 0.9938,-3.99573 2.767187,-10.95595 3.940859,-15.46716 l 2.133949,-8.2022 3.652737,4.51094 c 4.917665,6.07306 8.085823,18.58993 6.606497,26.10118 -3.059347,15.53377 -10.920728,28.38631 -20.343048,33.25878 -5.724031,2.96002 -7.682766,3.1658 -14.526002,1.52608 z"
       id="path5"
       transform="matrix(0.26458333,0,0,0.26458333,-29.529834,-200.36187)" /><path
       style="fill:#ffffff;stroke:none;stroke-width:18.2688;stroke-linecap:round;stroke-dasharray:none"
       d="m 514.3561,580.71726 c -5.70258,-31.25474 -7.94598,-51.82742 -5.65165,-51.82742 1.35998,0 3.91452,1.44182 5.67675,3.20405 3.11498,3.11498 3.06118,7.1926 -0.27917,21.16045 -0.84216,3.52156 0.40611,4.32876 10.02198,6.48069 7.32185,1.63856 11.62981,1.81226 12.92108,0.52099 1.06541,-1.06541 2.37088,-9.2125 2.90103,-18.10464 0.87686,-14.70728 0.54816,-16.77579 -3.63929,-22.90207 -2.53177,-3.70399 -7.36124,-8.59317 -10.73217,-10.86484 l -6.12895,-4.1303 7.14372,-6.94008 c 9.55517,-9.28278 16.47787,-11.78192 24.91927,-8.996 10.32022,3.40598 23.87695,11.58811 23.87695,14.41088 0,5.99571 -7.79174,26.83731 -14.61437,39.09099 -7.88829,14.16763 -28.88658,36.7443 -39.05788,41.99373 l -6.20778,3.20385 z"
       id="path6"
       transform="matrix(0.26458333,0,0,0.26458333,-29.529834,-200.36187)" /><path
       style="fill:#ffffff;stroke:none;stroke-width:6.0578;stroke-linecap:round;stroke-dasharray:none"
       d="m 573.31225,490.05788 c -3.5236,-10.57458 -6.71596,-16.53606 -10.9054,-20.36496 -5.12249,-4.68167 -9.1919,-6.08394 -17.84223,-6.14824 -6.90457,-0.0513 -6.93055,-0.0574 -5.46042,-1.26936 5.16099,-4.2548 14.56983,-6.07016 20.23922,-3.905 9.39226,3.58693 16.04402,16.03266 16.72899,31.30068 0.18625,4.15153 0.17832,7.54823 -0.0176,7.54823 -0.19595,0 -1.43009,-3.22261 -2.74253,-7.16135 z"
       id="path7"
       transform="matrix(0.26458333,0,0,0.26458333,-29.529834,-200.36187)" /><path
       style="fill:#ffffff;stroke:none;stroke-width:2.40201;stroke-linecap:round;stroke-dasharray:none"
       d="m 42.538582,387.29046 c 0,-0.39056 2.008729,-4.91966 3.348054,-7.54889 2.018144,-3.96182 4.114563,-6.85608 7.350272,-10.14759 8.487108,-8.63345 17.096603,-11.23935 24.831536,-7.51594 3.381127,1.62759 6.416316,4.34652 9.102536,8.15407 1.36112,1.9293 2.340518,3.68071 2.159503,3.86172 -0.06188,0.0619 -1.302089,-0.51639 -2.756032,-1.28502 -3.05979,-1.61758 -6.317614,-2.91816 -9.39367,-3.75009 -1.873837,-0.5068 -2.782008,-0.58677 -6.750134,-0.59443 -4.024932,-0.008 -4.833915,0.0621 -6.622774,0.57227 -2.625377,0.74869 -6.647942,2.74761 -8.915271,4.43022 -3.576106,2.65388 -7.700654,7.21884 -10.949552,12.11872 -1.153102,1.73907 -1.404468,2.04422 -1.404468,1.70496 z"
       id="path8"
       transform="matrix(0.26458333,0,0,0.26458333,-29.529834,-200.36187)" /><path
       style="fill:#000000;fill-opacity:1;stroke:#000000;stroke-width:1.71262;stroke-dasharray:none;stroke-opacity:1"
       d="m 76.015268,-120.91593 c 11.91603,3.00973 18.43411,9.97493 22.808083,21.117543 10.002549,-8.515073 -10.145013,-32.736573 -22.808083,-21.117543 m -67.4938499,4.45154 1.4794599,0.37308 c 8.72336,-7.96964 17.05915,-17.4646 30.12299,-12.35496 -0.43796,-8.249 -10.19163,-10.04986 -17.11724,-6.88283 -7.69235,3.51746 -12.24328,11.25843 -14.4852199,18.86399 m 45.7662899,23.844233 c -4.33522,-7.885533 -7.86906,-14.977173 -17.27238,-18.183343 -18.95389,-6.46293 -35.6083099,13.187203 -31.5056199,30.433313 4.7120799,19.80791 33.8525399,22.01156 42.7101299,4.64518 l 2.9592,0.74712 c 0.86164,29.03238 41.59387,20.91348 45.25086,-3.9269 3.414003,-23.190203 -31.21688,-35.136073 -42.14206,-13.71554 m 21.13208,-8.227333 c 24.799352,2.151083 22.7817,40.806913 -1.63779,41.816553 -28.10184,1.16205 -26.39678,-44.248043 1.63779,-41.816553 m -43.67152,-7.9593 c 25.27023,2.19209 22.27785,40.827593 -1.63768,41.816643 -30.62289991,1.26633 -27.2855099,-44.325223 1.63768,-41.816643 m 30.70622,22.090423 c -9.28622,2.88811 -3.09803,17.22968 5.39719,12.3688 6.8482,-3.91847 2.38991,-14.79022 -5.39719,-12.3688 m -23.14076,-3.02935 c -6.98722,0.92241 -6.26009,13.04684 1.25226,13.11325 8.64161,0.0765 9.24923,-14.50013 -1.25226,-13.11325"
       id="path1060-2"
       sodipodi:nodetypes="ccccccccccccccccccccccscccc" /></g></svg>
